<svg width="220" height="220" viewBox="0 0 220 220" fill="none" xmlns="http://www.w3.org/2000/svg">
<circle cx="110" cy="110" r="110" fill="#4DB45E" fill-opacity="0.31"/>
<circle cx="109.5" cy="110.5" r="86.5" fill="#4DB45E"/>
<path d="M89.0378 114.36C87.3578 114.36 85.9058 114.156 84.6818 113.748C83.4578 113.34 82.4378 112.812 81.6218 112.164C80.8298 111.492 80.2298 110.772 79.8218 110.004C79.4138 109.212 79.1978 108.432 79.1738 107.664C79.1738 107.448 79.2458 107.28 79.3898 107.16C79.5578 107.016 79.7498 106.944 79.9658 106.944H83.2058C83.4458 106.944 83.6498 106.992 83.8178 107.088C83.9858 107.184 84.1298 107.376 84.2498 107.664C84.4658 108.312 84.8138 108.828 85.2938 109.212C85.7978 109.596 86.3738 109.872 87.0218 110.04C87.6698 110.184 88.3538 110.256 89.0738 110.256C90.5138 110.256 91.6538 109.92 92.4938 109.248C93.3578 108.552 93.7898 107.568 93.7898 106.296C93.7898 105.024 93.3938 104.112 92.6018 103.56C91.8098 102.984 90.7058 102.696 89.2898 102.696H85.5818C85.3178 102.696 85.1018 102.624 84.9338 102.48C84.7658 102.312 84.6818 102.096 84.6818 101.832V100.32C84.6818 100.08 84.7298 99.876 84.8258 99.708C84.9458 99.516 85.0658 99.36 85.1858 99.24L91.6298 92.94H81.3338C81.0698 92.94 80.8538 92.856 80.6858 92.688C80.5418 92.52 80.4698 92.316 80.4698 92.076V89.7C80.4698 89.436 80.5418 89.22 80.6858 89.052C80.8538 88.884 81.0698 88.8 81.3338 88.8H96.7778C97.0418 88.8 97.2578 88.884 97.4258 89.052C97.5938 89.22 97.6778 89.436 97.6778 89.7V91.86C97.6778 92.076 97.6298 92.268 97.5338 92.436C97.4378 92.604 97.3298 92.748 97.2098 92.868L90.9818 99.276L91.4138 99.312C92.8778 99.432 94.1738 99.768 95.3018 100.32C96.4538 100.848 97.3418 101.628 97.9658 102.66C98.6138 103.692 98.9378 104.988 98.9378 106.548C98.9378 108.18 98.5058 109.584 97.6418 110.76C96.8018 111.912 95.6378 112.8 94.1498 113.424C92.6618 114.048 90.9578 114.36 89.0378 114.36ZM105.738 114C105.522 114 105.342 113.928 105.198 113.784C105.054 113.616 104.982 113.424 104.982 113.208C104.982 113.112 105.006 113.004 105.054 112.884L113.73 93.084H102.426C102.162 93.084 101.946 93 101.778 92.832C101.634 92.664 101.562 92.46 101.562 92.22V89.7C101.562 89.436 101.634 89.22 101.778 89.052C101.946 88.884 102.162 88.8 102.426 88.8H118.23C118.494 88.8 118.698 88.884 118.842 89.052C119.01 89.22 119.094 89.436 119.094 89.7V91.932C119.094 92.268 119.058 92.556 118.986 92.796C118.938 93.012 118.866 93.24 118.77 93.48L110.166 113.136C110.094 113.304 109.962 113.496 109.77 113.712C109.602 113.904 109.35 114 109.014 114H105.738ZM129.053 112.812C128.813 112.812 128.609 112.728 128.441 112.56C128.273 112.392 128.189 112.188 128.189 111.948V104.928H121.277C121.037 104.928 120.833 104.844 120.665 104.676C120.497 104.508 120.413 104.304 120.413 104.064V102.156C120.413 101.892 120.497 101.688 120.665 101.544C120.833 101.376 121.037 101.292 121.277 101.292H128.189V94.452C128.189 94.212 128.273 94.008 128.441 93.84C128.609 93.672 128.813 93.588 129.053 93.588H131.141C131.405 93.588 131.609 93.672 131.753 93.84C131.921 94.008 132.005 94.212 132.005 94.452V101.292H138.917C139.157 101.292 139.361 101.376 139.529 101.544C139.697 101.688 139.781 101.892 139.781 102.156V104.064C139.781 104.304 139.697 104.508 139.529 104.676C139.361 104.844 139.157 104.928 138.917 104.928H132.005V111.948C132.005 112.188 131.921 112.392 131.753 112.56C131.609 112.728 131.405 112.812 131.141 112.812H129.053ZM63.8799 138.16C63.1226 138.16 62.4666 138.016 61.9119 137.728C61.3679 137.429 60.9466 137.008 60.6479 136.464C60.3493 135.909 60.1893 135.248 60.1679 134.48C60.1573 134.32 60.1519 134.107 60.1519 133.84C60.1519 133.573 60.1573 133.36 60.1679 133.2C60.1893 132.432 60.3493 131.776 60.6479 131.232C60.9466 130.677 61.3679 130.256 61.9119 129.968C62.4666 129.669 63.1226 129.52 63.8799 129.52C64.4986 129.52 65.0266 129.605 65.4639 129.776C65.9119 129.947 66.2799 130.165 66.5679 130.432C66.8559 130.699 67.0693 130.987 67.2079 131.296C67.3573 131.605 67.4373 131.899 67.4479 132.176C67.4586 132.283 67.4266 132.368 67.3519 132.432C67.2773 132.496 67.1866 132.528 67.0799 132.528H66.3119C66.2053 132.528 66.1253 132.507 66.0719 132.464C66.0186 132.411 65.9653 132.325 65.9119 132.208C65.7199 131.685 65.4586 131.317 65.1279 131.104C64.7973 130.891 64.3866 130.784 63.8959 130.784C63.2559 130.784 62.7333 130.981 62.3279 131.376C61.9333 131.771 61.7199 132.405 61.6879 133.28C61.6773 133.664 61.6773 134.037 61.6879 134.4C61.7199 135.285 61.9333 135.925 62.3279 136.32C62.7333 136.704 63.2559 136.896 63.8959 136.896C64.3866 136.896 64.7973 136.789 65.1279 136.576C65.4586 136.363 65.7199 135.995 65.9119 135.472C65.9653 135.355 66.0186 135.275 66.0719 135.232C66.1253 135.179 66.2053 135.152 66.3119 135.152H67.0799C67.1866 135.152 67.2773 135.184 67.3519 135.248C67.4266 135.312 67.4586 135.397 67.4479 135.504C67.4373 135.728 67.3893 135.957 67.3039 136.192C67.2186 136.427 67.0799 136.667 66.8879 136.912C66.7066 137.147 66.4773 137.36 66.1999 137.552C65.9226 137.733 65.5866 137.883 65.1919 138C64.8079 138.107 64.3706 138.16 63.8799 138.16ZM72.7561 138.16C71.9454 138.16 71.2681 138.005 70.7241 137.696C70.1801 137.387 69.7641 136.96 69.4761 136.416C69.1881 135.861 69.0281 135.232 68.9961 134.528C68.9854 134.347 68.9801 134.117 68.9801 133.84C68.9801 133.552 68.9854 133.323 68.9961 133.152C69.0281 132.437 69.1881 131.808 69.4761 131.264C69.7747 130.72 70.1961 130.293 70.7401 129.984C71.2841 129.675 71.9561 129.52 72.7561 129.52C73.5561 129.52 74.2281 129.675 74.7721 129.984C75.3161 130.293 75.7321 130.72 76.0201 131.264C76.3187 131.808 76.4841 132.437 76.5161 133.152C76.5267 133.323 76.5321 133.552 76.5321 133.84C76.5321 134.117 76.5267 134.347 76.5161 134.528C76.4841 135.232 76.3241 135.861 76.0361 136.416C75.7481 136.96 75.3321 137.387 74.7881 137.696C74.2441 138.005 73.5667 138.16 72.7561 138.16ZM72.7561 136.928C73.4174 136.928 73.9454 136.72 74.3401 136.304C74.7347 135.877 74.9481 135.259 74.9801 134.448C74.9907 134.288 74.9961 134.085 74.9961 133.84C74.9961 133.595 74.9907 133.392 74.9801 133.232C74.9481 132.421 74.7347 131.808 74.3401 131.392C73.9454 130.965 73.4174 130.752 72.7561 130.752C72.0947 130.752 71.5614 130.965 71.1561 131.392C70.7614 131.808 70.5534 132.421 70.5321 133.232C70.5214 133.392 70.5161 133.595 70.5161 133.84C70.5161 134.085 70.5214 134.288 70.5321 134.448C70.5534 135.259 70.7614 135.877 71.1561 136.304C71.5614 136.72 72.0947 136.928 72.7561 136.928ZM81.0796 138C80.9729 138 80.8822 137.968 80.8076 137.904C80.7436 137.829 80.7116 137.739 80.7116 137.632V130.96H77.9276C77.8209 130.96 77.7302 130.928 77.6556 130.864C77.5916 130.789 77.5596 130.699 77.5596 130.592V130.048C77.5596 129.941 77.5916 129.856 77.6556 129.792C77.7302 129.717 77.8209 129.68 77.9276 129.68H84.9676C85.0742 129.68 85.1596 129.717 85.2236 129.792C85.2982 129.856 85.3356 129.941 85.3356 130.048V130.592C85.3356 130.699 85.2982 130.789 85.2236 130.864C85.1596 130.928 85.0742 130.96 84.9676 130.96H82.1836V137.632C82.1836 137.739 82.1516 137.829 82.0876 137.904C82.0236 137.968 81.9329 138 81.8156 138H81.0796ZM87.1071 141.04C87.0004 141.04 86.9097 141.003 86.8351 140.928C86.7711 140.864 86.7391 140.779 86.7391 140.672V130.048C86.7391 129.941 86.7711 129.856 86.8351 129.792C86.9097 129.717 87.0004 129.68 87.1071 129.68H87.8431C87.9497 129.68 88.0351 129.717 88.0991 129.792C88.1737 129.856 88.2111 129.941 88.2111 130.048V130.752C88.4671 130.4 88.8084 130.107 89.2351 129.872C89.6617 129.637 90.1951 129.52 90.8351 129.52C91.4324 129.52 91.9391 129.621 92.3551 129.824C92.7817 130.027 93.1284 130.304 93.3951 130.656C93.6724 131.008 93.8804 131.408 94.0191 131.856C94.1577 132.304 94.2324 132.784 94.2431 133.296C94.2537 133.467 94.2591 133.648 94.2591 133.84C94.2591 134.032 94.2537 134.213 94.2431 134.384C94.2324 134.885 94.1577 135.365 94.0191 135.824C93.8804 136.272 93.6724 136.672 93.3951 137.024C93.1284 137.365 92.7817 137.643 92.3551 137.856C91.9391 138.059 91.4324 138.16 90.8351 138.16C90.2164 138.16 89.6937 138.048 89.2671 137.824C88.8511 137.589 88.5097 137.301 88.2431 136.96V140.672C88.2431 140.779 88.2111 140.864 88.1471 140.928C88.0831 141.003 87.9924 141.04 87.8751 141.04H87.1071ZM90.4991 136.864C91.0537 136.864 91.4857 136.747 91.7951 136.512C92.1151 136.267 92.3444 135.952 92.4831 135.568C92.6217 135.173 92.7017 134.752 92.7231 134.304C92.7337 133.995 92.7337 133.685 92.7231 133.376C92.7017 132.928 92.6217 132.512 92.4831 132.128C92.3444 131.733 92.1151 131.419 91.7951 131.184C91.4857 130.939 91.0537 130.816 90.4991 130.816C89.9764 130.816 89.5497 130.939 89.2191 131.184C88.8991 131.429 88.6591 131.744 88.4991 132.128C88.3497 132.501 88.2644 132.885 88.2431 133.28C88.2324 133.451 88.2271 133.653 88.2271 133.888C88.2271 134.123 88.2324 134.331 88.2431 134.512C88.2537 134.885 88.3391 135.253 88.4991 135.616C88.6697 135.979 88.9204 136.277 89.2511 136.512C89.5817 136.747 89.9977 136.864 90.4991 136.864ZM96.6383 141.04C96.521 141.04 96.4303 141.003 96.3663 140.928C96.3023 140.864 96.2703 140.779 96.2703 140.672V140.128C96.2703 140.021 96.3023 139.931 96.3663 139.856C96.4303 139.792 96.521 139.76 96.6383 139.76H97.0543C97.2996 139.76 97.497 139.712 97.6463 139.616C97.7956 139.52 97.929 139.355 98.0463 139.12C98.1743 138.896 98.3236 138.587 98.4943 138.192L101.966 129.952C101.998 129.867 102.041 129.803 102.094 129.76C102.158 129.707 102.249 129.68 102.366 129.68H103.07C103.166 129.68 103.246 129.712 103.31 129.776C103.374 129.84 103.406 129.915 103.406 130C103.406 130.043 103.401 130.085 103.39 130.128C103.38 130.16 103.358 130.213 103.326 130.288L100.286 137.488C100.126 137.872 99.9503 138.272 99.7583 138.688C99.577 139.104 99.369 139.488 99.1343 139.84C98.9103 140.203 98.6436 140.491 98.3343 140.704C98.025 140.928 97.6623 141.04 97.2463 141.04H96.6383ZM98.8623 137.76L95.6303 130.288C95.577 130.16 95.5503 130.069 95.5503 130.016C95.561 129.92 95.5983 129.84 95.6623 129.776C95.7263 129.712 95.801 129.68 95.8863 129.68H96.6383C96.7556 129.68 96.841 129.707 96.8943 129.76C96.9583 129.813 97.0063 129.877 97.0383 129.952L99.6943 136.304L98.8623 137.76ZM104.54 139.76C104.433 139.76 104.343 139.723 104.268 139.648C104.204 139.584 104.172 139.499 104.172 139.392V137.088C104.172 136.981 104.204 136.896 104.268 136.832C104.343 136.757 104.433 136.72 104.54 136.72H104.62C104.908 136.709 105.153 136.549 105.356 136.24C105.559 135.92 105.713 135.424 105.82 134.752C105.927 134.069 105.98 133.184 105.98 132.096V130.048C105.98 129.941 106.012 129.856 106.076 129.792C106.151 129.717 106.241 129.68 106.348 129.68H111.452C111.559 129.68 111.644 129.717 111.708 129.792C111.783 129.856 111.82 129.941 111.82 130.048V136.688H112.572C112.689 136.688 112.78 136.725 112.844 136.8C112.908 136.864 112.94 136.949 112.94 137.056V139.392C112.94 139.499 112.908 139.584 112.844 139.648C112.78 139.723 112.689 139.76 112.572 139.76H111.82C111.713 139.76 111.623 139.723 111.548 139.648C111.484 139.584 111.452 139.499 111.452 139.392V138H105.66V139.392C105.66 139.499 105.623 139.584 105.548 139.648C105.484 139.723 105.399 139.76 105.292 139.76H104.54ZM106.524 136.72L110.332 136.688V130.96H107.436V132.272C107.436 133.403 107.356 134.331 107.196 135.056C107.036 135.771 106.812 136.325 106.524 136.72ZM114.982 138C114.875 138 114.784 137.968 114.71 137.904C114.646 137.829 114.614 137.739 114.614 137.632V130.048C114.614 129.941 114.646 129.856 114.71 129.792C114.784 129.717 114.875 129.68 114.982 129.68H115.75C115.856 129.68 115.942 129.717 116.006 129.792C116.07 129.856 116.102 129.941 116.102 130.048V133.12H120.47V130.048C120.47 129.941 120.502 129.856 120.566 129.792C120.64 129.717 120.731 129.68 120.838 129.68H121.59C121.696 129.68 121.782 129.717 121.846 129.792C121.92 129.856 121.958 129.941 121.958 130.048V137.632C121.958 137.739 121.92 137.829 121.846 137.904C121.782 137.968 121.696 138 121.59 138H120.838C120.731 138 120.64 137.968 120.566 137.904C120.502 137.829 120.47 137.739 120.47 137.632V134.4H116.102V137.632C116.102 137.739 116.07 137.829 116.006 137.904C115.942 137.968 115.856 138 115.75 138H114.982ZM124.716 138C124.62 138 124.534 137.968 124.46 137.904C124.396 137.829 124.364 137.749 124.364 137.664V130.048C124.364 129.941 124.396 129.856 124.46 129.792C124.534 129.717 124.625 129.68 124.732 129.68H125.5C125.606 129.68 125.692 129.717 125.756 129.792C125.82 129.856 125.852 129.941 125.852 130.048V136.832L125.436 136.4L130.284 129.92C130.337 129.856 130.396 129.803 130.46 129.76C130.524 129.707 130.604 129.68 130.7 129.68H131.436C131.521 129.68 131.596 129.712 131.66 129.776C131.734 129.84 131.772 129.915 131.772 130V137.632C131.772 137.739 131.734 137.829 131.66 137.904C131.596 137.968 131.51 138 131.404 138H130.652C130.534 138 130.444 137.968 130.38 137.904C130.316 137.829 130.284 137.739 130.284 137.632V131.248L130.732 131.232L125.852 137.76C125.809 137.813 125.756 137.867 125.692 137.92C125.628 137.973 125.542 138 125.436 138H124.716ZM134.482 138C134.375 138 134.284 137.968 134.21 137.904C134.146 137.829 134.114 137.739 134.114 137.632V130.048C134.114 129.941 134.146 129.856 134.21 129.792C134.284 129.717 134.375 129.68 134.482 129.68H135.234C135.34 129.68 135.426 129.717 135.49 129.792C135.564 129.856 135.602 129.941 135.602 130.048V133.12H137.058L139.218 129.92C139.271 129.845 139.33 129.787 139.394 129.744C139.458 129.701 139.543 129.68 139.65 129.68H140.482C140.578 129.68 140.658 129.701 140.722 129.744C140.786 129.787 140.818 129.851 140.818 129.936C140.818 129.957 140.807 129.989 140.786 130.032C140.775 130.064 140.759 130.096 140.738 130.128L138.338 133.664L141.058 137.536C141.111 137.6 141.138 137.669 141.138 137.744C141.138 137.829 141.106 137.893 141.042 137.936C140.988 137.979 140.914 138 140.818 138H139.842C139.746 138 139.666 137.979 139.602 137.936C139.538 137.893 139.479 137.835 139.426 137.76L137.074 134.416H135.602V137.632C135.602 137.739 135.564 137.829 135.49 137.904C135.426 137.968 135.34 138 135.234 138H134.482ZM146.1 138.16C145.289 138.16 144.612 138.005 144.068 137.696C143.524 137.387 143.108 136.96 142.82 136.416C142.532 135.861 142.372 135.232 142.34 134.528C142.329 134.347 142.324 134.117 142.324 133.84C142.324 133.552 142.329 133.323 142.34 133.152C142.372 132.437 142.532 131.808 142.82 131.264C143.118 130.72 143.54 130.293 144.084 129.984C144.628 129.675 145.3 129.52 146.1 129.52C146.9 129.52 147.572 129.675 148.116 129.984C148.66 130.293 149.076 130.72 149.364 131.264C149.662 131.808 149.828 132.437 149.86 133.152C149.87 133.323 149.876 133.552 149.876 133.84C149.876 134.117 149.87 134.347 149.86 134.528C149.828 135.232 149.668 135.861 149.38 136.416C149.092 136.96 148.676 137.387 148.132 137.696C147.588 138.005 146.91 138.16 146.1 138.16ZM146.1 136.928C146.761 136.928 147.289 136.72 147.684 136.304C148.078 135.877 148.292 135.259 148.324 134.448C148.334 134.288 148.34 134.085 148.34 133.84C148.34 133.595 148.334 133.392 148.324 133.232C148.292 132.421 148.078 131.808 147.684 131.392C147.289 130.965 146.761 130.752 146.1 130.752C145.438 130.752 144.905 130.965 144.5 131.392C144.105 131.808 143.897 132.421 143.876 133.232C143.865 133.392 143.86 133.595 143.86 133.84C143.86 134.085 143.865 134.288 143.876 134.448C143.897 135.259 144.105 135.877 144.5 136.304C144.905 136.72 145.438 136.928 146.1 136.928ZM152.247 138C152.141 138 152.05 137.968 151.975 137.904C151.911 137.829 151.879 137.739 151.879 137.632V130.048C151.879 129.941 151.911 129.856 151.975 129.792C152.05 129.717 152.141 129.68 152.247 129.68H155.575C156.578 129.68 157.33 129.883 157.831 130.288C158.343 130.693 158.599 131.237 158.599 131.92C158.599 132.4 158.509 132.763 158.327 133.008C158.146 133.253 157.89 133.461 157.559 133.632C157.965 133.803 158.269 134.08 158.471 134.464C158.685 134.837 158.791 135.227 158.791 135.632C158.791 136.4 158.519 136.987 157.975 137.392C157.431 137.797 156.674 138 155.703 138H152.247ZM153.351 136.832H155.575C156.087 136.832 156.498 136.736 156.807 136.544C157.127 136.341 157.287 136.037 157.287 135.632C157.287 135.205 157.143 134.896 156.855 134.704C156.567 134.501 156.141 134.4 155.575 134.4H153.351V136.832ZM153.351 133.216H155.479C155.991 133.216 156.397 133.104 156.695 132.88C157.005 132.656 157.159 132.341 157.159 131.936C157.159 131.52 157.005 131.237 156.695 131.088C156.397 130.928 155.991 130.848 155.479 130.848H153.351V133.216Z" fill="white"/>
</svg>
