<svg width="395" height="174" viewBox="0 0 395 174" fill="none" xmlns="http://www.w3.org/2000/svg">
<g opacity="0.1" filter="url(#filter0_d_3308_2747)">
<rect x="14.5" y="10.5" width="115" height="67" rx="9.5" stroke="#343B4E" shape-rendering="crispEdges"/>
</g>
<g clip-path="url(#clip0_3308_2747)">
<path fill-rule="evenodd" clip-rule="evenodd" d="M60.2818 36V36.0066C60.2753 36.0066 58.2116 36 57.6613 37.9716C57.1569 39.7795 55.7352 44.7707 55.6959 44.9083H55.3028C55.3028 44.9083 53.8485 39.8057 53.3375 37.9651C52.7871 35.9935 50.7169 36 50.7169 36H46V51H50.7169V42.0917H50.9135H51.11L53.8616 51H57.1372L59.8888 42.0983H60.2818V51H64.9988V36H60.2818Z" fill="#4DB45E"/>
<path fill-rule="evenodd" clip-rule="evenodd" d="M77.5114 36C77.5114 36 76.1291 36.1245 75.4805 37.5721L72.1393 44.9083H71.7462V36H67.0293V51H71.4842C71.4842 51 72.932 50.869 73.5806 49.4279L76.8562 42.0917H77.2493V51H81.9663V36H77.5114Z" fill="#4DB45E"/>
<path fill-rule="evenodd" clip-rule="evenodd" d="M84.0625 42.8125V51.0003H88.7794V46.2186H93.8894C96.1169 46.2186 98.0037 44.7972 98.7046 42.8125H84.0625Z" fill="#4DB45E"/>
<path fill-rule="evenodd" clip-rule="evenodd" d="M93.889 36H83.4004C83.9245 38.8559 86.0668 41.1485 88.838 41.8952C89.4669 42.0655 90.1286 42.1572 90.8099 42.1572H98.8942C98.9663 41.8166 98.999 41.4694 98.999 41.1092C98.999 38.286 96.7126 36 93.889 36Z" fill="url(#paint0_linear_3308_2747)"/>
</g>
<g opacity="0.1" filter="url(#filter1_d_3308_2747)">
<rect x="140.5" y="10.5" width="114" height="67" rx="9.5" stroke="#343B4E" shape-rendering="crispEdges"/>
</g>
<path d="M202.456 33.875C201.203 33.875 199.962 34.124 198.805 34.6077C197.647 35.0914 196.595 35.8003 195.709 36.6941C194.823 37.5879 194.12 38.6489 193.64 39.8167C193.161 40.9844 192.914 42.236 192.914 43.5C192.914 44.764 193.161 46.0156 193.64 47.1833C194.12 48.3511 194.823 49.4121 195.709 50.3059C196.595 51.1997 197.647 51.9086 198.805 52.3923C199.962 52.876 201.203 53.125 202.456 53.125C203.709 53.125 204.95 52.876 206.108 52.3923C207.265 51.9086 208.317 51.1997 209.203 50.3059C210.089 49.4121 210.792 48.3511 211.272 47.1833C211.751 46.0156 211.998 44.764 211.998 43.5C211.998 42.236 211.751 40.9844 211.272 39.8167C210.792 38.6489 210.089 37.5879 209.203 36.6941C208.317 35.8003 207.265 35.0914 206.108 34.6077C204.95 34.124 203.709 33.875 202.456 33.875V33.875Z" fill="#FF9800"/>
<path d="M191.552 33.875C190.299 33.875 189.058 34.124 187.9 34.6077C186.743 35.0914 185.691 35.8003 184.805 36.6941C183.919 37.5879 183.216 38.6489 182.736 39.8167C182.257 40.9844 182.01 42.236 182.01 43.5C182.01 44.764 182.257 46.0156 182.736 47.1833C183.216 48.3511 183.919 49.4121 184.805 50.3059C185.691 51.1997 186.743 51.9086 187.9 52.3923C189.058 52.876 190.299 53.125 191.552 53.125C192.805 53.125 194.046 52.876 195.203 52.3923C196.361 51.9086 197.413 51.1997 198.299 50.3059C199.185 49.4121 199.888 48.3511 200.367 47.1833C200.847 46.0156 201.094 44.764 201.094 43.5C201.094 42.236 200.847 40.9844 200.367 39.8167C199.888 38.6489 199.185 37.5879 198.299 36.6941C197.413 35.8003 196.361 35.0914 195.203 34.6077C194.046 34.124 192.805 33.875 191.552 33.875V33.875Z" fill="#D50000"/>
<path d="M192.914 43.4999C192.914 46.769 194.533 49.653 197.004 51.3924C199.474 49.653 201.093 46.769 201.093 43.4999C201.093 40.2309 199.474 37.3468 197.004 35.6074C194.533 37.3468 192.914 40.2309 192.914 43.4999Z" fill="#FF3D00"/>
<g opacity="0.1" filter="url(#filter2_d_3308_2747)">
<rect x="265.5" y="10.5" width="115" height="67" rx="9.5" stroke="#343B4E" shape-rendering="crispEdges"/>
</g>
<path d="M320.044 50.75H316.271L318.629 36.2589H322.402L320.044 50.75ZM313.097 36.2589L309.5 46.226L309.075 44.0797L309.075 44.0805L307.806 37.5637C307.806 37.5637 307.652 36.2589 306.016 36.2589H300.07L300 36.5043C300 36.5043 301.818 36.8826 303.946 38.1606L307.224 50.7504H311.155L317.158 36.2589H313.097ZM342.772 50.75H346.236L343.216 36.2585H340.183C338.782 36.2585 338.441 37.3385 338.441 37.3385L332.815 50.75H336.747L337.534 48.5975H342.33L342.772 50.75ZM338.62 45.624L340.603 40.2011L341.718 45.624H338.62ZM333.11 39.7437L333.648 36.6318C333.648 36.6318 331.987 36 330.255 36C328.382 36 323.936 36.8183 323.936 40.7973C323.936 44.541 329.155 44.5875 329.155 46.5539C329.155 48.5203 324.474 48.168 322.929 46.928L322.368 50.1817C322.368 50.1817 324.053 51 326.627 51C329.201 51 333.086 49.6669 333.086 46.0388C333.086 42.271 327.82 41.9202 327.82 40.2821C327.821 38.6436 331.495 38.8541 333.11 39.7437Z" fill="#2566AF"/>
<path d="M309.075 44.0793L307.806 37.5626C307.806 37.5626 307.652 36.2578 306.016 36.2578H300.07L300 36.5032C300 36.5032 302.858 37.0955 305.599 39.3146C308.22 41.4357 309.075 44.0793 309.075 44.0793Z" fill="#E6A540"/>
<g opacity="0.5">
<rect width="116" height="68" transform="translate(14 88)" fill="white"/>
<g opacity="0.1" filter="url(#filter3_d_3308_2747)">
<rect x="14.5" y="88.5" width="115" height="67" rx="9.5" stroke="#343B4E" shape-rendering="crispEdges"/>
</g>
<path d="M59.5873 113C58.8692 113.034 57.9825 113.49 57.476 114.13C57.0116 114.682 56.6145 115.579 56.7151 116.421C57.5261 116.491 58.3367 115.999 58.8432 115.376C59.342 114.735 59.6716 113.877 59.5873 113L59.5873 113ZM66.4806 114.713V127.571H68.5231V123.285H71.318C73.8833 123.285 75.7254 121.506 75.7254 118.999C75.7254 116.492 73.917 114.713 71.3852 114.713H66.4806ZM68.5231 116.427H70.888C72.6484 116.427 73.683 117.374 73.683 118.999C73.683 120.623 72.657 121.571 70.888 121.571H68.5231V116.427ZM59.4933 116.856C58.3108 116.856 57.4654 117.499 56.9133 117.499C56.3526 117.499 55.5159 116.864 54.5484 116.864C53.3659 116.864 52.2078 117.604 51.5972 118.682C50.3425 120.838 51.2715 124.03 52.4841 125.785C53.0783 126.654 53.7959 127.571 54.7634 127.571C55.65 127.538 55.9501 127.035 57.0208 127.035C58.0992 127.035 58.4183 127.571 59.3858 127.571C60.3533 127.571 60.939 126.687 61.5324 125.818C62.21 124.832 62.4869 123.871 62.5032 123.821C62.4869 123.804 60.6308 123.094 60.6136 120.954C60.5973 119.166 62.0767 118.314 62.1438 118.264C61.307 117.028 59.9233 116.856 59.6008 116.856H59.4933ZM80.4116 118.142C78.2711 118.142 76.6892 119.338 76.6307 120.983H78.4448C78.5944 120.201 79.3363 119.689 80.3528 119.689C81.5852 119.689 82.2811 120.251 82.2811 121.286L82.2828 121.999L79.7616 122.131C77.4216 122.269 76.1554 123.207 76.1554 124.835C76.1554 126.48 77.4628 127.573 79.3367 127.573C80.6025 127.573 81.7773 126.946 82.3096 125.952H82.3516V127.474H84.216V121.155C84.2169 119.322 82.719 118.142 80.4116 118.142V118.142ZM84.9702 118.142L88.4168 127.528L88.2321 128.099C87.9208 129.066 87.4167 129.438 86.5172 129.438C86.3632 129.438 86.0718 129.422 85.9377 129.406V130.953C86.0736 130.983 86.5465 131 86.6935 131C88.6775 131 89.6113 130.256 90.4274 127.998L94 118.142H91.9324L89.5355 125.758H89.4935L87.0966 118.142H84.9702ZM82.2828 123.285L82.276 124.028C82.276 125.217 81.2432 126.064 79.8775 126.064C78.8034 126.064 78.1206 125.56 78.1206 124.787C78.1206 123.989 78.7789 123.524 80.0371 123.451L82.2828 123.285Z" fill="#272727"/>
</g>
<g opacity="0.1" filter="url(#filter4_d_3308_2747)">
<rect x="140.5" y="88.5" width="114" height="67" rx="9.5" stroke="#343B4E" shape-rendering="crispEdges"/>
</g>
<path d="M194.567 121.23V126.827H192.805V113.001H197.475C198.602 112.976 199.69 113.408 200.5 114.198C201.32 114.942 201.78 116.006 201.763 117.116C201.788 118.234 201.325 119.306 200.5 120.052C199.682 120.838 198.673 121.231 197.475 121.23H194.567ZM194.567 114.703V119.531H197.519C198.174 119.551 198.805 119.292 199.262 118.816C200.186 117.91 200.209 116.417 199.307 115.484C199.292 115.468 199.277 115.451 199.262 115.437C198.812 114.952 198.176 114.686 197.519 114.703H194.567V114.703ZM205.822 117.058C207.125 117.058 208.151 117.409 208.904 118.111C209.657 118.812 210.033 119.776 210.033 120.996V126.829H208.35V125.514H208.273C207.543 126.596 206.573 127.137 205.363 127.137C204.329 127.137 203.465 126.829 202.77 126.21C202.095 125.636 201.711 124.786 201.727 123.893C201.727 122.914 202.093 122.135 202.827 121.557C203.561 120.979 204.539 120.688 205.766 120.688C206.811 120.688 207.673 120.881 208.35 121.266V120.859C208.354 120.25 208.086 119.674 207.622 119.289C207.155 118.864 206.55 118.633 205.921 118.641C204.939 118.641 204.159 119.059 203.586 119.896L202.036 118.911C202.886 117.675 204.15 117.058 205.822 117.058ZM203.542 123.932C203.54 124.391 203.758 124.822 204.125 125.09C204.515 125.399 204.998 125.564 205.493 125.553C206.236 125.551 206.949 125.252 207.475 124.722C208.057 124.167 208.35 123.519 208.35 122.772C207.799 122.33 207.035 122.108 206.053 122.108C205.338 122.108 204.74 122.282 204.262 122.631C203.783 122.987 203.542 123.417 203.542 123.932ZM219.702 117.367L213.822 131H212.005L214.187 126.229L210.318 117.367H212.233L215.028 124.163H215.066L217.786 117.367H219.702Z" fill="#5F6368"/>
<path d="M189.143 121.623C189.143 121.081 189.099 120.542 189.008 120.008H181.58V123.067H185.834C185.658 124.054 185.09 124.927 184.261 125.48V127.467H186.801C188.287 126.087 189.143 124.042 189.143 121.623Z" fill="#4285F4"/>
<path d="M181.581 129.387C183.706 129.387 185.496 128.684 186.801 127.469L184.262 125.482C183.555 125.966 182.645 126.242 181.581 126.242C179.527 126.242 177.784 124.844 177.159 122.963H174.545V125.01C175.883 127.695 178.604 129.387 181.581 129.387Z" fill="#34A853"/>
<path d="M177.161 122.962C176.831 121.977 176.831 120.907 177.161 119.92V117.875H174.545C173.428 120.121 173.428 122.765 174.545 125.011L177.161 122.962Z" fill="#FBBC04"/>
<path d="M181.581 116.644C182.704 116.627 183.788 117.053 184.602 117.835L186.851 115.569C185.425 114.219 183.538 113.477 181.581 113.498C178.604 113.498 175.881 115.193 174.545 117.876L177.161 119.923C177.784 118.04 179.527 116.644 181.581 116.644Z" fill="#EA4335"/>
<g opacity="0.1" filter="url(#filter5_d_3308_2747)">
<rect x="265.5" y="88.5" width="115" height="67" rx="9.5" stroke="#343B4E" shape-rendering="crispEdges"/>
</g>
<path d="M294.535 126C294.447 126 294.379 125.976 294.331 125.928C294.283 125.872 294.259 125.804 294.259 125.724V117.888C294.259 117.8 294.283 117.732 294.331 117.684C294.379 117.628 294.447 117.6 294.535 117.6H295.147C295.235 117.6 295.303 117.628 295.351 117.684C295.407 117.732 295.435 117.8 295.435 117.888V121.2H299.563V117.888C299.563 117.8 299.587 117.732 299.635 117.684C299.691 117.628 299.759 117.6 299.839 117.6H300.451C300.539 117.6 300.607 117.628 300.655 117.684C300.711 117.732 300.739 117.8 300.739 117.888V125.724C300.739 125.804 300.711 125.872 300.655 125.928C300.607 125.976 300.539 126 300.451 126H299.839C299.759 126 299.691 125.976 299.635 125.928C299.587 125.872 299.563 125.804 299.563 125.724V122.28H295.435V125.724C295.435 125.804 295.407 125.872 295.351 125.928C295.303 125.976 295.235 126 295.147 126H294.535ZM304.398 126.12C303.998 126.12 303.634 126.04 303.306 125.88C302.978 125.72 302.714 125.504 302.514 125.232C302.314 124.96 302.214 124.652 302.214 124.308C302.214 123.756 302.438 123.316 302.886 122.988C303.334 122.66 303.918 122.444 304.638 122.34L306.426 122.088V121.74C306.426 121.356 306.314 121.056 306.09 120.84C305.874 120.624 305.518 120.516 305.022 120.516C304.662 120.516 304.37 120.588 304.146 120.732C303.93 120.876 303.778 121.06 303.69 121.284C303.642 121.404 303.558 121.464 303.438 121.464H302.898C302.81 121.464 302.742 121.44 302.694 121.392C302.654 121.336 302.634 121.272 302.634 121.2C302.634 121.08 302.678 120.932 302.766 120.756C302.862 120.58 303.006 120.408 303.198 120.24C303.39 120.072 303.634 119.932 303.93 119.82C304.234 119.7 304.602 119.64 305.034 119.64C305.514 119.64 305.918 119.704 306.246 119.832C306.574 119.952 306.83 120.116 307.014 120.324C307.206 120.532 307.342 120.768 307.422 121.032C307.51 121.296 307.554 121.564 307.554 121.836V125.724C307.554 125.804 307.526 125.872 307.47 125.928C307.422 125.976 307.358 126 307.278 126H306.726C306.638 126 306.57 125.976 306.522 125.928C306.474 125.872 306.45 125.804 306.45 125.724V125.208C306.346 125.352 306.206 125.496 306.03 125.64C305.854 125.776 305.634 125.892 305.37 125.988C305.106 126.076 304.782 126.12 304.398 126.12ZM304.65 125.22C304.978 125.22 305.278 125.152 305.55 125.016C305.822 124.872 306.034 124.652 306.186 124.356C306.346 124.06 306.426 123.688 306.426 123.24V122.904L305.034 123.108C304.466 123.188 304.038 123.324 303.75 123.516C303.462 123.7 303.318 123.936 303.318 124.224C303.318 124.448 303.382 124.636 303.51 124.788C303.646 124.932 303.814 125.04 304.014 125.112C304.222 125.184 304.434 125.22 304.65 125.22ZM308.979 126C308.899 126 308.831 125.972 308.775 125.916C308.719 125.86 308.691 125.792 308.691 125.712V125.268C308.691 125.1 308.775 125.012 308.943 125.004C309.191 124.996 309.399 124.88 309.567 124.656C309.735 124.424 309.863 124.06 309.951 123.564C310.039 123.06 310.083 122.396 310.083 121.572V120.036C310.083 119.956 310.107 119.892 310.155 119.844C310.211 119.788 310.279 119.76 310.359 119.76H314.175C314.255 119.76 314.319 119.788 314.367 119.844C314.423 119.892 314.451 119.956 314.451 120.036V125.724C314.451 125.804 314.423 125.872 314.367 125.928C314.319 125.976 314.255 126 314.175 126H313.599C313.519 126 313.455 125.976 313.407 125.928C313.359 125.872 313.335 125.804 313.335 125.724V120.72H311.175V121.704C311.175 122.472 311.131 123.132 311.043 123.684C310.955 124.228 310.819 124.672 310.635 125.016C310.459 125.352 310.231 125.6 309.951 125.76C309.679 125.92 309.355 126 308.979 126ZM316.504 126C316.432 126 316.368 125.976 316.312 125.928C316.264 125.872 316.24 125.812 316.24 125.748V120.036C316.24 119.956 316.264 119.892 316.312 119.844C316.368 119.788 316.436 119.76 316.516 119.76H317.092C317.172 119.76 317.236 119.788 317.284 119.844C317.332 119.892 317.356 119.956 317.356 120.036V125.124L317.044 124.8L320.68 119.94C320.72 119.892 320.764 119.852 320.812 119.82C320.86 119.78 320.92 119.76 320.992 119.76H321.544C321.608 119.76 321.664 119.784 321.712 119.832C321.768 119.88 321.796 119.936 321.796 120V125.724C321.796 125.804 321.768 125.872 321.712 125.928C321.664 125.976 321.6 126 321.52 126H320.956C320.868 126 320.8 125.976 320.752 125.928C320.704 125.872 320.68 125.804 320.68 125.724V120.936L321.016 120.924L317.356 125.82C317.324 125.86 317.284 125.9 317.236 125.94C317.188 125.98 317.124 126 317.044 126H316.504ZM327.488 126C327.4 126 327.332 125.976 327.284 125.928C327.236 125.872 327.212 125.804 327.212 125.724V123.468C326.996 123.668 326.732 123.816 326.42 123.912C326.116 124 325.768 124.044 325.376 124.044C324.672 124.044 324.124 123.888 323.732 123.576C323.348 123.264 323.156 122.76 323.156 122.064V120.036C323.156 119.956 323.18 119.892 323.228 119.844C323.284 119.788 323.352 119.76 323.432 119.76H324.02C324.1 119.76 324.164 119.788 324.212 119.844C324.268 119.892 324.296 119.956 324.296 120.036V121.992C324.296 122.352 324.4 122.616 324.608 122.784C324.824 122.952 325.152 123.036 325.592 123.036C326.08 123.036 326.472 122.976 326.768 122.856C327.064 122.728 327.212 122.504 327.212 122.184V120.036C327.212 119.956 327.236 119.892 327.284 119.844C327.332 119.788 327.4 119.76 327.488 119.76H328.088C328.168 119.76 328.232 119.788 328.28 119.844C328.336 119.892 328.364 119.956 328.364 120.036V125.724C328.364 125.804 328.336 125.872 328.28 125.928C328.232 125.976 328.168 126 328.088 126H327.488ZM330.426 126C330.346 126 330.278 125.976 330.222 125.928C330.174 125.872 330.15 125.804 330.15 125.724V120.036C330.15 119.956 330.174 119.892 330.222 119.844C330.278 119.788 330.346 119.76 330.426 119.76H331.002C331.082 119.76 331.146 119.788 331.194 119.844C331.242 119.892 331.266 119.956 331.266 120.036V122.34H334.542V120.036C334.542 119.956 334.566 119.892 334.614 119.844C334.67 119.788 334.738 119.76 334.818 119.76H335.382C335.462 119.76 335.526 119.788 335.574 119.844C335.63 119.892 335.658 119.956 335.658 120.036V125.724C335.658 125.804 335.63 125.872 335.574 125.928C335.526 125.976 335.462 126 335.382 126H334.818C334.738 126 334.67 125.976 334.614 125.928C334.566 125.872 334.542 125.804 334.542 125.724V123.3H331.266V125.724C331.266 125.804 331.242 125.872 331.194 125.928C331.146 125.976 331.082 126 331.002 126H330.426ZM337.738 126C337.658 126 337.59 125.976 337.534 125.928C337.486 125.872 337.462 125.804 337.462 125.724V120.036C337.462 119.956 337.486 119.892 337.534 119.844C337.59 119.788 337.658 119.76 337.738 119.76H338.314C338.394 119.76 338.458 119.788 338.506 119.844C338.562 119.892 338.59 119.956 338.59 120.036V121.8H339.838C340.654 121.8 341.25 121.992 341.626 122.376C342.002 122.76 342.19 123.28 342.19 123.936C342.19 124.64 341.982 125.16 341.566 125.496C341.15 125.832 340.526 126 339.694 126H337.738ZM338.578 125.1H339.73C340.218 125.1 340.574 125.016 340.798 124.848C341.022 124.672 341.134 124.368 341.134 123.936C341.134 123.52 341.026 123.212 340.81 123.012C340.594 122.804 340.234 122.7 339.73 122.7H338.578V125.1ZM343.318 126C343.238 126 343.17 125.976 343.114 125.928C343.066 125.872 343.042 125.804 343.042 125.724V120.036C343.042 119.956 343.066 119.892 343.114 119.844C343.17 119.788 343.238 119.76 343.318 119.76H343.894C343.974 119.76 344.038 119.788 344.086 119.844C344.142 119.892 344.17 119.956 344.17 120.036V125.724C344.17 125.804 344.142 125.872 344.086 125.928C344.038 125.976 343.974 126 343.894 126H343.318ZM348.442 126.12C347.618 126.12 346.962 125.868 346.474 125.364C345.986 124.852 345.718 124.156 345.67 123.276C345.662 123.172 345.658 123.04 345.658 122.88C345.658 122.712 345.662 122.576 345.67 122.472C345.702 121.904 345.834 121.408 346.066 120.984C346.298 120.552 346.614 120.22 347.014 119.988C347.422 119.756 347.898 119.64 348.442 119.64C349.05 119.64 349.558 119.768 349.966 120.024C350.382 120.28 350.698 120.644 350.914 121.116C351.13 121.588 351.238 122.14 351.238 122.772V122.976C351.238 123.064 351.21 123.132 351.154 123.18C351.106 123.228 351.042 123.252 350.962 123.252H346.81C346.81 123.26 346.81 123.276 346.81 123.3C346.81 123.324 346.81 123.344 346.81 123.36C346.826 123.688 346.898 123.996 347.026 124.284C347.154 124.564 347.338 124.792 347.578 124.968C347.818 125.144 348.106 125.232 348.442 125.232C348.73 125.232 348.97 125.188 349.162 125.1C349.354 125.012 349.51 124.916 349.63 124.812C349.75 124.7 349.83 124.616 349.87 124.56C349.942 124.456 349.998 124.396 350.038 124.38C350.078 124.356 350.142 124.344 350.23 124.344H350.806C350.886 124.344 350.95 124.368 350.998 124.416C351.054 124.456 351.078 124.516 351.07 124.596C351.062 124.716 350.998 124.864 350.878 125.04C350.758 125.208 350.586 125.376 350.362 125.544C350.138 125.712 349.866 125.852 349.546 125.964C349.226 126.068 348.858 126.12 348.442 126.12ZM346.81 122.424H350.098V122.388C350.098 122.028 350.03 121.708 349.894 121.428C349.766 121.148 349.578 120.928 349.33 120.768C349.082 120.6 348.786 120.516 348.442 120.516C348.098 120.516 347.802 120.6 347.554 120.768C347.314 120.928 347.13 121.148 347.002 121.428C346.874 121.708 346.81 122.028 346.81 122.388V122.424Z" fill="#343B4E"/>
<defs>
<filter id="filter0_d_3308_2747" x="0" y="0" width="144" height="96" filterUnits="userSpaceOnUse" color-interpolation-filters="sRGB">
<feFlood flood-opacity="0" result="BackgroundImageFix"/>
<feColorMatrix in="SourceAlpha" type="matrix" values="0 0 0 0 0 0 0 0 0 0 0 0 0 0 0 0 0 0 127 0" result="hardAlpha"/>
<feMorphology radius="27" operator="erode" in="SourceAlpha" result="effect1_dropShadow_3308_2747"/>
<feOffset dy="4"/>
<feGaussianBlur stdDeviation="20.5"/>
<feComposite in2="hardAlpha" operator="out"/>
<feColorMatrix type="matrix" values="0 0 0 0 0 0 0 0 0 0 0 0 0 0 0 0 0 0 0.2 0"/>
<feBlend mode="normal" in2="BackgroundImageFix" result="effect1_dropShadow_3308_2747"/>
<feBlend mode="normal" in="SourceGraphic" in2="effect1_dropShadow_3308_2747" result="shape"/>
</filter>
<filter id="filter1_d_3308_2747" x="126" y="0" width="143" height="96" filterUnits="userSpaceOnUse" color-interpolation-filters="sRGB">
<feFlood flood-opacity="0" result="BackgroundImageFix"/>
<feColorMatrix in="SourceAlpha" type="matrix" values="0 0 0 0 0 0 0 0 0 0 0 0 0 0 0 0 0 0 127 0" result="hardAlpha"/>
<feMorphology radius="27" operator="erode" in="SourceAlpha" result="effect1_dropShadow_3308_2747"/>
<feOffset dy="4"/>
<feGaussianBlur stdDeviation="20.5"/>
<feComposite in2="hardAlpha" operator="out"/>
<feColorMatrix type="matrix" values="0 0 0 0 0 0 0 0 0 0 0 0 0 0 0 0 0 0 0.2 0"/>
<feBlend mode="normal" in2="BackgroundImageFix" result="effect1_dropShadow_3308_2747"/>
<feBlend mode="normal" in="SourceGraphic" in2="effect1_dropShadow_3308_2747" result="shape"/>
</filter>
<filter id="filter2_d_3308_2747" x="251" y="0" width="144" height="96" filterUnits="userSpaceOnUse" color-interpolation-filters="sRGB">
<feFlood flood-opacity="0" result="BackgroundImageFix"/>
<feColorMatrix in="SourceAlpha" type="matrix" values="0 0 0 0 0 0 0 0 0 0 0 0 0 0 0 0 0 0 127 0" result="hardAlpha"/>
<feMorphology radius="27" operator="erode" in="SourceAlpha" result="effect1_dropShadow_3308_2747"/>
<feOffset dy="4"/>
<feGaussianBlur stdDeviation="20.5"/>
<feComposite in2="hardAlpha" operator="out"/>
<feColorMatrix type="matrix" values="0 0 0 0 0 0 0 0 0 0 0 0 0 0 0 0 0 0 0.2 0"/>
<feBlend mode="normal" in2="BackgroundImageFix" result="effect1_dropShadow_3308_2747"/>
<feBlend mode="normal" in="SourceGraphic" in2="effect1_dropShadow_3308_2747" result="shape"/>
</filter>
<filter id="filter3_d_3308_2747" x="0" y="78" width="144" height="96" filterUnits="userSpaceOnUse" color-interpolation-filters="sRGB">
<feFlood flood-opacity="0" result="BackgroundImageFix"/>
<feColorMatrix in="SourceAlpha" type="matrix" values="0 0 0 0 0 0 0 0 0 0 0 0 0 0 0 0 0 0 127 0" result="hardAlpha"/>
<feMorphology radius="27" operator="erode" in="SourceAlpha" result="effect1_dropShadow_3308_2747"/>
<feOffset dy="4"/>
<feGaussianBlur stdDeviation="20.5"/>
<feComposite in2="hardAlpha" operator="out"/>
<feColorMatrix type="matrix" values="0 0 0 0 0 0 0 0 0 0 0 0 0 0 0 0 0 0 0.2 0"/>
<feBlend mode="normal" in2="BackgroundImageFix" result="effect1_dropShadow_3308_2747"/>
<feBlend mode="normal" in="SourceGraphic" in2="effect1_dropShadow_3308_2747" result="shape"/>
</filter>
<filter id="filter4_d_3308_2747" x="126" y="78" width="143" height="96" filterUnits="userSpaceOnUse" color-interpolation-filters="sRGB">
<feFlood flood-opacity="0" result="BackgroundImageFix"/>
<feColorMatrix in="SourceAlpha" type="matrix" values="0 0 0 0 0 0 0 0 0 0 0 0 0 0 0 0 0 0 127 0" result="hardAlpha"/>
<feMorphology radius="27" operator="erode" in="SourceAlpha" result="effect1_dropShadow_3308_2747"/>
<feOffset dy="4"/>
<feGaussianBlur stdDeviation="20.5"/>
<feComposite in2="hardAlpha" operator="out"/>
<feColorMatrix type="matrix" values="0 0 0 0 0 0 0 0 0 0 0 0 0 0 0 0 0 0 0.2 0"/>
<feBlend mode="normal" in2="BackgroundImageFix" result="effect1_dropShadow_3308_2747"/>
<feBlend mode="normal" in="SourceGraphic" in2="effect1_dropShadow_3308_2747" result="shape"/>
</filter>
<filter id="filter5_d_3308_2747" x="251" y="78" width="144" height="96" filterUnits="userSpaceOnUse" color-interpolation-filters="sRGB">
<feFlood flood-opacity="0" result="BackgroundImageFix"/>
<feColorMatrix in="SourceAlpha" type="matrix" values="0 0 0 0 0 0 0 0 0 0 0 0 0 0 0 0 0 0 127 0" result="hardAlpha"/>
<feMorphology radius="27" operator="erode" in="SourceAlpha" result="effect1_dropShadow_3308_2747"/>
<feOffset dy="4"/>
<feGaussianBlur stdDeviation="20.5"/>
<feComposite in2="hardAlpha" operator="out"/>
<feColorMatrix type="matrix" values="0 0 0 0 0 0 0 0 0 0 0 0 0 0 0 0 0 0 0.2 0"/>
<feBlend mode="normal" in2="BackgroundImageFix" result="effect1_dropShadow_3308_2747"/>
<feBlend mode="normal" in="SourceGraphic" in2="effect1_dropShadow_3308_2747" result="shape"/>
</filter>
<linearGradient id="paint0_linear_3308_2747" x1="83.4017" y1="39.0786" x2="98.999" y2="39.0786" gradientUnits="userSpaceOnUse">
<stop offset="0.3" stop-color="#00B4E6"/>
<stop offset="1" stop-color="#088CCB"/>
</linearGradient>
<clipPath id="clip0_3308_2747">
<rect width="53" height="15" fill="white" transform="translate(46 36)"/>
</clipPath>
</defs>
</svg>
