<svg width="18" height="18" viewBox="0 0 18 18" fill="none" xmlns="http://www.w3.org/2000/svg">
<path d="M14.5341 7.7963C14.5806 8.16084 14.296 8.48342 13.9286 8.48342H13.9104C13.6047 8.48342 13.3451 8.25678 13.3062 7.95318C13.0681 6.09858 11.5987 4.62878 9.74416 4.39114C9.44051 4.35224 9.21387 4.09261 9.21387 3.78647V3.76829C9.21387 3.40084 9.5365 3.11669 9.90057 3.1632C12.3137 3.47145 14.2254 5.38313 14.5341 7.7963L14.5341 7.7963Z" fill="white"/>
<path d="M17.0259 7.82336C17.0555 8.17813 16.7735 8.48215 16.4174 8.48215H16.3997C16.0809 8.48215 15.8187 8.23606 15.7916 7.91808C15.5214 4.7218 12.9738 2.17459 9.77752 1.90439C9.45996 1.87733 9.21387 1.61474 9.21387 1.29592V1.27816C9.21387 0.922121 9.51743 0.640507 9.87224 0.670106C13.6766 0.986393 16.7096 4.01903 17.0259 7.82336H17.0259Z" fill="white"/>
<path d="M11.9983 7.71307C12.1053 8.10039 11.811 8.48264 11.4093 8.48264H11.3907C11.1201 8.48264 10.877 8.30505 10.8051 8.04373C10.6515 7.48515 10.2114 7.04493 9.6524 6.89106C9.39104 6.81917 9.21387 6.57646 9.21387 6.30542V6.28681C9.21387 5.88511 9.5957 5.59124 9.98302 5.69779C10.9599 5.96714 11.729 6.7363 11.9983 7.71307H11.9983Z" fill="white"/>
<path d="M14.4221 13.7368L12.6381 11.9529C12.1401 11.4543 11.3324 11.4543 10.8343 11.9529L10.0918 12.6954L5.30771 7.91128L6.05022 7.16876C6.54833 6.67065 6.54833 5.86302 6.05022 5.36491L4.26624 3.58093C3.76813 3.0824 2.9605 3.0824 2.46239 3.58093L1.71987 4.32345C0.316032 5.72686 0.316032 8.00261 1.71987 9.40603L8.59659 16.2832C9.99852 17.6859 12.2758 17.687 13.6796 16.2832L14.4221 15.5406C14.9202 15.0426 14.9202 14.2349 14.4221 13.7368H14.4221Z" fill="white"/>
<path d="M14.4212 13.738C14.9193 14.2361 14.9193 15.0437 14.4212 15.5418L13.6787 16.2844L10.0908 12.6965L10.8333 11.954C11.3314 11.4554 12.1391 11.4554 12.6371 11.954L14.4212 13.738Z" fill="white"/>
<path d="M6.0491 5.36491C6.54721 5.86302 6.54721 6.67065 6.0491 7.16876L5.30658 7.91128L1.71875 4.32345L2.46126 3.58093C2.95937 3.0824 3.76701 3.0824 4.26512 3.58093L6.0491 5.36491Z" fill="white"/>
</svg>
