<svg width="167" height="41" viewBox="0 0 167 41" fill="none" xmlns="http://www.w3.org/2000/svg">
<path d="M162 23.8507C161.821 23.8507 161.642 23.7822 161.505 23.6457L157.205 19.3459C156.932 19.0723 156.932 18.6289 157.205 18.3554C157.479 18.082 157.922 18.082 158.195 18.3554L162 22.1602L165.804 18.3556C166.078 18.0822 166.521 18.0822 166.795 18.3556C167.068 18.629 167.068 19.0725 166.795 19.346L162.495 23.6458C162.358 23.7824 162.179 23.8507 162 23.8507Z" fill="#343B4E"/>
<path d="M61.64 29C61.48 29 61.344 28.952 61.232 28.856C61.136 28.744 61.088 28.608 61.088 28.448V12.776C61.088 12.6 61.136 12.464 61.232 12.368C61.344 12.256 61.48 12.2 61.64 12.2H62.84C63.032 12.2 63.176 12.248 63.272 12.344C63.368 12.44 63.424 12.52 63.44 12.584L68.528 22.28L73.64 12.584C73.672 12.52 73.728 12.44 73.808 12.344C73.904 12.248 74.048 12.2 74.24 12.2H75.416C75.592 12.2 75.728 12.256 75.824 12.368C75.936 12.464 75.992 12.6 75.992 12.776V28.448C75.992 28.608 75.936 28.744 75.824 28.856C75.728 28.952 75.592 29 75.416 29H74.24C74.08 29 73.944 28.952 73.832 28.856C73.736 28.744 73.688 28.608 73.688 28.448V16.64L69.68 24.464C69.616 24.624 69.52 24.752 69.392 24.848C69.264 24.928 69.104 24.968 68.912 24.968H68.168C67.96 24.968 67.792 24.928 67.664 24.848C67.552 24.752 67.456 24.624 67.376 24.464L63.368 16.64V28.448C63.368 28.608 63.312 28.744 63.2 28.856C63.104 28.952 62.976 29 62.816 29H61.64ZM84.9427 29.24C83.7267 29.24 82.7107 29.008 81.8947 28.544C81.0787 28.08 80.4547 27.44 80.0227 26.624C79.5907 25.792 79.3507 24.848 79.3027 23.792C79.2867 23.52 79.2787 23.176 79.2787 22.76C79.2787 22.328 79.2867 21.984 79.3027 21.728C79.3507 20.656 79.5907 19.712 80.0227 18.896C80.4707 18.08 81.1027 17.44 81.9187 16.976C82.7347 16.512 83.7427 16.28 84.9427 16.28C86.1427 16.28 87.1507 16.512 87.9667 16.976C88.7827 17.44 89.4067 18.08 89.8387 18.896C90.2867 19.712 90.5347 20.656 90.5827 21.728C90.5987 21.984 90.6067 22.328 90.6067 22.76C90.6067 23.176 90.5987 23.52 90.5827 23.792C90.5347 24.848 90.2947 25.792 89.8627 26.624C89.4307 27.44 88.8067 28.08 87.9907 28.544C87.1747 29.008 86.1587 29.24 84.9427 29.24ZM84.9427 27.392C85.9347 27.392 86.7267 27.08 87.3187 26.456C87.9107 25.816 88.2307 24.888 88.2787 23.672C88.2947 23.432 88.3027 23.128 88.3027 22.76C88.3027 22.392 88.2947 22.088 88.2787 21.848C88.2307 20.632 87.9107 19.712 87.3187 19.088C86.7267 18.448 85.9347 18.128 84.9427 18.128C83.9507 18.128 83.1507 18.448 82.5427 19.088C81.9507 19.712 81.6387 20.632 81.6067 21.848C81.5907 22.088 81.5827 22.392 81.5827 22.76C81.5827 23.128 81.5907 23.432 81.6067 23.672C81.6387 24.888 81.9507 25.816 82.5427 26.456C83.1507 27.08 83.9507 27.392 84.9427 27.392ZM98.6519 29.24C97.5159 29.24 96.5319 29.024 95.6999 28.592C94.8839 28.144 94.2519 27.512 93.8039 26.696C93.3559 25.864 93.1159 24.872 93.0839 23.72C93.0679 23.48 93.0599 23.16 93.0599 22.76C93.0599 22.36 93.0679 22.04 93.0839 21.8C93.1159 20.648 93.3559 19.664 93.8039 18.848C94.2519 18.016 94.8839 17.384 95.6999 16.952C96.5319 16.504 97.5159 16.28 98.6519 16.28C99.5799 16.28 100.372 16.408 101.028 16.664C101.7 16.92 102.252 17.248 102.684 17.648C103.116 18.048 103.436 18.48 103.644 18.944C103.868 19.408 103.988 19.848 104.004 20.264C104.02 20.424 103.972 20.552 103.86 20.648C103.748 20.744 103.612 20.792 103.452 20.792H102.3C102.14 20.792 102.02 20.76 101.94 20.696C101.86 20.616 101.78 20.488 101.7 20.312C101.412 19.528 101.02 18.976 100.524 18.656C100.028 18.336 99.4119 18.176 98.6759 18.176C97.7159 18.176 96.9319 18.472 96.3239 19.064C95.7319 19.656 95.4119 20.608 95.3639 21.92C95.3479 22.496 95.3479 23.056 95.3639 23.6C95.4119 24.928 95.7319 25.888 96.3239 26.48C96.9319 27.056 97.7159 27.344 98.6759 27.344C99.4119 27.344 100.028 27.184 100.524 26.864C101.02 26.544 101.412 25.992 101.7 25.208C101.78 25.032 101.86 24.912 101.94 24.848C102.02 24.768 102.14 24.728 102.3 24.728H103.452C103.612 24.728 103.748 24.776 103.86 24.872C103.972 24.968 104.02 25.096 104.004 25.256C103.988 25.592 103.916 25.936 103.788 26.288C103.66 26.64 103.452 27 103.164 27.368C102.892 27.72 102.548 28.04 102.132 28.328C101.716 28.6 101.212 28.824 100.62 29C100.044 29.16 99.3879 29.24 98.6519 29.24ZM107.406 29C107.246 29 107.11 28.952 106.998 28.856C106.902 28.744 106.854 28.608 106.854 28.448V17.072C106.854 16.912 106.902 16.784 106.998 16.688C107.11 16.576 107.246 16.52 107.406 16.52H108.534C108.694 16.52 108.822 16.576 108.918 16.688C109.03 16.784 109.086 16.912 109.086 17.072V21.68H111.27L114.51 16.88C114.59 16.768 114.678 16.68 114.774 16.616C114.87 16.552 114.998 16.52 115.158 16.52H116.406C116.55 16.52 116.67 16.552 116.766 16.616C116.862 16.68 116.91 16.776 116.91 16.904C116.91 16.936 116.894 16.984 116.862 17.048C116.846 17.096 116.822 17.144 116.79 17.192L113.19 22.496L117.27 28.304C117.35 28.4 117.39 28.504 117.39 28.616C117.39 28.744 117.342 28.84 117.246 28.904C117.166 28.968 117.054 29 116.91 29H115.446C115.302 29 115.182 28.968 115.086 28.904C114.99 28.84 114.902 28.752 114.822 28.64L111.294 23.624H109.086V28.448C109.086 28.608 109.03 28.744 108.918 28.856C108.822 28.952 108.694 29 108.534 29H107.406ZM120.273 29C120.113 29 119.977 28.952 119.865 28.856C119.769 28.744 119.721 28.608 119.721 28.448V17.072C119.721 16.912 119.769 16.784 119.865 16.688C119.977 16.576 120.113 16.52 120.273 16.52H125.265C126.769 16.52 127.897 16.824 128.649 17.432C129.417 18.04 129.801 18.856 129.801 19.88C129.801 20.6 129.665 21.144 129.393 21.512C129.121 21.88 128.737 22.192 128.241 22.448C128.849 22.704 129.305 23.12 129.609 23.696C129.929 24.256 130.089 24.84 130.089 25.448C130.089 26.6 129.681 27.48 128.865 28.088C128.049 28.696 126.913 29 125.457 29H120.273ZM121.929 27.248H125.265C126.033 27.248 126.649 27.104 127.113 26.816C127.593 26.512 127.833 26.056 127.833 25.448C127.833 24.808 127.617 24.344 127.185 24.056C126.753 23.752 126.113 23.6 125.265 23.6H121.929V27.248ZM121.929 21.824H125.121C125.889 21.824 126.497 21.656 126.945 21.32C127.409 20.984 127.641 20.512 127.641 19.904C127.641 19.28 127.409 18.856 126.945 18.632C126.497 18.392 125.889 18.272 125.121 18.272H121.929V21.824ZM136.654 29.24C135.854 29.24 135.126 29.08 134.47 28.76C133.814 28.44 133.286 28.008 132.886 27.464C132.486 26.92 132.286 26.304 132.286 25.616C132.286 24.512 132.734 23.632 133.63 22.976C134.526 22.32 135.694 21.888 137.134 21.68L140.71 21.176V20.48C140.71 19.712 140.486 19.112 140.038 18.68C139.606 18.248 138.894 18.032 137.902 18.032C137.182 18.032 136.598 18.176 136.15 18.464C135.718 18.752 135.414 19.12 135.238 19.568C135.142 19.808 134.974 19.928 134.734 19.928H133.654C133.478 19.928 133.342 19.88 133.246 19.784C133.166 19.672 133.126 19.544 133.126 19.4C133.126 19.16 133.214 18.864 133.39 18.512C133.582 18.16 133.87 17.816 134.254 17.48C134.638 17.144 135.126 16.864 135.718 16.64C136.326 16.4 137.062 16.28 137.926 16.28C138.886 16.28 139.694 16.408 140.35 16.664C141.006 16.904 141.518 17.232 141.886 17.648C142.27 18.064 142.542 18.536 142.702 19.064C142.878 19.592 142.966 20.128 142.966 20.672V28.448C142.966 28.608 142.91 28.744 142.798 28.856C142.702 28.952 142.574 29 142.414 29H141.31C141.134 29 140.998 28.952 140.902 28.856C140.806 28.744 140.758 28.608 140.758 28.448V27.416C140.55 27.704 140.27 27.992 139.918 28.28C139.566 28.552 139.126 28.784 138.598 28.976C138.07 29.152 137.422 29.24 136.654 29.24ZM137.158 27.44C137.814 27.44 138.414 27.304 138.958 27.032C139.502 26.744 139.926 26.304 140.23 25.712C140.55 25.12 140.71 24.376 140.71 23.48V22.808L137.926 23.216C136.79 23.376 135.934 23.648 135.358 24.032C134.782 24.4 134.494 24.872 134.494 25.448C134.494 25.896 134.622 26.272 134.878 26.576C135.15 26.864 135.486 27.08 135.886 27.224C136.302 27.368 136.726 27.44 137.158 27.44Z" fill="#343B4E"/>
<circle cx="20.5" cy="20.5" r="20.5" fill="#343B4E"/>
<path d="M20.5 10.3438C16.1945 10.3438 12.6875 13.8508 12.6875 18.1563C12.6875 20.3696 13.7888 22.6528 15.2174 24.7892C16.646 26.9257 18.4329 28.9127 19.9476 30.4274C20.2527 30.7324 20.7473 30.7324 21.0524 30.4274C22.6016 28.8781 24.3883 26.8903 25.8085 24.7618C27.2288 22.6333 28.3125 20.3649 28.3125 18.1563C28.3125 13.8508 24.8055 10.3438 20.5 10.3438ZM20.5 11.9063C23.961 11.9063 26.75 14.6952 26.75 18.1563C26.75 19.8309 25.8429 21.8976 24.51 23.8951C23.3343 25.6571 21.8635 27.351 20.5 28.7596C19.1626 27.3765 17.6978 25.687 16.5159 23.9195C15.1738 21.9124 14.25 19.8262 14.25 18.1563C14.25 14.6952 17.039 11.9063 20.5 11.9063Z" fill="white"/>
<path d="M20.5 15.0312C18.7834 15.0312 17.375 16.4396 17.375 18.1563C17.375 19.8729 18.7834 21.2812 20.5 21.2812C22.2166 21.2812 23.625 19.8729 23.625 18.1563C23.625 16.4396 22.2166 15.0312 20.5 15.0312ZM20.5 16.5938C21.3722 16.5938 22.0625 17.2841 22.0625 18.1563C22.0625 19.0284 21.3722 19.7188 20.5 19.7188C19.6278 19.7188 18.9375 19.0284 18.9375 18.1563C18.9375 17.2841 19.6278 16.5938 20.5 16.5938Z" fill="white"/>
</svg>
