<svg width="138" height="58" viewBox="0 0 138 58" fill="none" xmlns="http://www.w3.org/2000/svg">
<ellipse cx="29.5" cy="29.0002" rx="29.5" ry="28.9998" transform="rotate(180 29.5 29.0002)" fill="#343B4E" fill-opacity="0.08"/>
<path d="M19.3964 28.9619C19.1035 29.2548 19.1035 29.7296 19.3964 30.0225L24.1693 34.7955C24.4622 35.0884 24.9371 35.0884 25.23 34.7955C25.5229 34.5026 25.5229 34.0277 25.23 33.7348L20.9874 29.4922L25.23 25.2495C25.5229 24.9567 25.5229 24.4818 25.23 24.1889C24.9371 23.896 24.4622 23.896 24.1693 24.1889L19.3964 28.9619ZM40 28.7422H19.9267V30.2422H40V28.7422Z" fill="#343B4E"/>
<ellipse cx="108.5" cy="28.9998" rx="29.5" ry="28.9998" fill="#EFF0F1"/>
<path d="M118.604 29.0381C118.897 28.7452 118.897 28.2704 118.604 27.9775L113.831 23.2045C113.538 22.9116 113.063 22.9116 112.77 23.2045C112.477 23.4974 112.477 23.9723 112.77 24.2652L117.013 28.5078L112.77 32.7505C112.477 33.0433 112.477 33.5182 112.77 33.8111C113.063 34.104 113.538 34.104 113.831 33.8111L118.604 29.0381ZM98 29.2578L118.073 29.2578V27.7578L98 27.7578V29.2578Z" fill="#343B4E"/>
</svg>
