<svg width="284" height="41" viewBox="0 0 284 41" fill="none" xmlns="http://www.w3.org/2000/svg">
<path d="M61.328 28C61.168 28 61.032 27.952 60.92 27.856C60.824 27.744 60.776 27.608 60.776 27.448V16.072C60.776 15.912 60.824 15.784 60.92 15.688C61.032 15.576 61.168 15.52 61.328 15.52H62.48C62.64 15.52 62.768 15.576 62.864 15.688C62.96 15.784 63.008 15.912 63.008 16.072V27.448C63.008 27.608 62.96 27.744 62.864 27.856C62.768 27.952 62.64 28 62.48 28H61.328ZM61.136 13.192C60.976 13.192 60.84 13.144 60.728 13.048C60.632 12.936 60.584 12.8 60.584 12.64V11.344C60.584 11.184 60.632 11.056 60.728 10.96C60.84 10.848 60.976 10.792 61.136 10.792H62.648C62.808 10.792 62.936 10.848 63.032 10.96C63.144 11.056 63.2 11.184 63.2 11.344V12.64C63.2 12.8 63.144 12.936 63.032 13.048C62.936 13.144 62.808 13.192 62.648 13.192H61.136ZM70.0685 28.24C69.2685 28.24 68.5405 28.08 67.8845 27.76C67.2285 27.44 66.7005 27.008 66.3005 26.464C65.9005 25.92 65.7005 25.304 65.7005 24.616C65.7005 23.512 66.1485 22.632 67.0445 21.976C67.9405 21.32 69.1085 20.888 70.5485 20.68L74.1245 20.176V19.48C74.1245 18.712 73.9005 18.112 73.4525 17.68C73.0205 17.248 72.3085 17.032 71.3165 17.032C70.5965 17.032 70.0125 17.176 69.5645 17.464C69.1325 17.752 68.8285 18.12 68.6525 18.568C68.5565 18.808 68.3885 18.928 68.1485 18.928H67.0685C66.8925 18.928 66.7565 18.88 66.6605 18.784C66.5805 18.672 66.5405 18.544 66.5405 18.4C66.5405 18.16 66.6285 17.864 66.8045 17.512C66.9965 17.16 67.2845 16.816 67.6685 16.48C68.0525 16.144 68.5405 15.864 69.1325 15.64C69.7405 15.4 70.4765 15.28 71.3405 15.28C72.3005 15.28 73.1085 15.408 73.7645 15.664C74.4205 15.904 74.9325 16.232 75.3005 16.648C75.6845 17.064 75.9565 17.536 76.1165 18.064C76.2925 18.592 76.3805 19.128 76.3805 19.672V27.448C76.3805 27.608 76.3245 27.744 76.2125 27.856C76.1165 27.952 75.9885 28 75.8285 28H74.7245C74.5485 28 74.4125 27.952 74.3165 27.856C74.2205 27.744 74.1725 27.608 74.1725 27.448V26.416C73.9645 26.704 73.6845 26.992 73.3325 27.28C72.9805 27.552 72.5405 27.784 72.0125 27.976C71.4845 28.152 70.8365 28.24 70.0685 28.24ZM70.5725 26.44C71.2285 26.44 71.8285 26.304 72.3725 26.032C72.9165 25.744 73.3405 25.304 73.6445 24.712C73.9645 24.12 74.1245 23.376 74.1245 22.48V21.808L71.3405 22.216C70.2045 22.376 69.3485 22.648 68.7725 23.032C68.1965 23.4 67.9085 23.872 67.9085 24.448C67.9085 24.896 68.0365 25.272 68.2925 25.576C68.5645 25.864 68.9005 26.08 69.3005 26.224C69.7165 26.368 70.1405 26.44 70.5725 26.44ZM83.9403 28C83.7003 28 83.5083 27.944 83.3643 27.832C83.2363 27.72 83.1323 27.576 83.0523 27.4L78.6123 16.264C78.5803 16.184 78.5643 16.104 78.5643 16.024C78.5643 15.88 78.6123 15.76 78.7083 15.664C78.8043 15.568 78.9243 15.52 79.0683 15.52H80.2203C80.3963 15.52 80.5323 15.568 80.6283 15.664C80.7243 15.76 80.7803 15.848 80.7963 15.928L84.4683 25.384L88.1163 15.928C88.1483 15.848 88.2043 15.76 88.2843 15.664C88.3803 15.568 88.5163 15.52 88.6923 15.52H89.8683C89.9963 15.52 90.1083 15.568 90.2043 15.664C90.3163 15.76 90.3723 15.88 90.3723 16.024C90.3723 16.104 90.3563 16.184 90.3243 16.264L85.8603 27.4C85.7963 27.576 85.6923 27.72 85.5483 27.832C85.4203 27.944 85.2283 28 84.9723 28H83.9403ZM95.8966 28.24C95.0966 28.24 94.3686 28.08 93.7126 27.76C93.0566 27.44 92.5286 27.008 92.1286 26.464C91.7286 25.92 91.5286 25.304 91.5286 24.616C91.5286 23.512 91.9766 22.632 92.8726 21.976C93.7686 21.32 94.9366 20.888 96.3766 20.68L99.9526 20.176V19.48C99.9526 18.712 99.7286 18.112 99.2806 17.68C98.8486 17.248 98.1366 17.032 97.1446 17.032C96.4246 17.032 95.8406 17.176 95.3926 17.464C94.9606 17.752 94.6566 18.12 94.4806 18.568C94.3846 18.808 94.2166 18.928 93.9766 18.928H92.8966C92.7206 18.928 92.5846 18.88 92.4886 18.784C92.4086 18.672 92.3686 18.544 92.3686 18.4C92.3686 18.16 92.4566 17.864 92.6326 17.512C92.8246 17.16 93.1126 16.816 93.4966 16.48C93.8806 16.144 94.3686 15.864 94.9606 15.64C95.5686 15.4 96.3046 15.28 97.1686 15.28C98.1286 15.28 98.9366 15.408 99.5926 15.664C100.249 15.904 100.761 16.232 101.129 16.648C101.513 17.064 101.785 17.536 101.945 18.064C102.121 18.592 102.209 19.128 102.209 19.672V27.448C102.209 27.608 102.153 27.744 102.041 27.856C101.945 27.952 101.817 28 101.657 28H100.553C100.377 28 100.241 27.952 100.145 27.856C100.049 27.744 100.001 27.608 100.001 27.448V26.416C99.7926 26.704 99.5126 26.992 99.1606 27.28C98.8086 27.552 98.3686 27.784 97.8406 27.976C97.3126 28.152 96.6646 28.24 95.8966 28.24ZM96.4006 26.44C97.0566 26.44 97.6566 26.304 98.2006 26.032C98.7446 25.744 99.1686 25.304 99.4726 24.712C99.7926 24.12 99.9526 23.376 99.9526 22.48V21.808L97.1686 22.216C96.0326 22.376 95.1766 22.648 94.6006 23.032C94.0246 23.4 93.7366 23.872 93.7366 24.448C93.7366 24.896 93.8646 25.272 94.1206 25.576C94.3926 25.864 94.7286 26.08 95.1286 26.224C95.5446 26.368 95.9686 26.44 96.4006 26.44ZM106.211 28C106.051 28 105.915 27.952 105.803 27.856C105.707 27.744 105.659 27.608 105.659 27.448V16.072C105.659 15.912 105.707 15.784 105.803 15.688C105.915 15.576 106.051 15.52 106.211 15.52H107.363C107.523 15.52 107.651 15.576 107.747 15.688C107.843 15.784 107.891 15.912 107.891 16.072V27.448C107.891 27.608 107.843 27.744 107.747 27.856C107.651 27.952 107.523 28 107.363 28H106.211ZM106.019 13.192C105.859 13.192 105.723 13.144 105.611 13.048C105.515 12.936 105.467 12.8 105.467 12.64V11.344C105.467 11.184 105.515 11.056 105.611 10.96C105.723 10.848 105.859 10.792 106.019 10.792H107.531C107.691 10.792 107.819 10.848 107.915 10.96C108.027 11.056 108.083 11.184 108.083 11.344V12.64C108.083 12.8 108.027 12.936 107.915 13.048C107.819 13.144 107.691 13.192 107.531 13.192H106.019ZM115.932 28.24C115.036 28.24 114.268 28.128 113.628 27.904C112.988 27.68 112.468 27.408 112.068 27.088C111.668 26.768 111.364 26.448 111.156 26.128C110.964 25.808 110.86 25.552 110.844 25.36C110.828 25.184 110.884 25.048 111.012 24.952C111.14 24.856 111.268 24.808 111.396 24.808H112.452C112.548 24.808 112.62 24.824 112.668 24.856C112.732 24.872 112.812 24.936 112.908 25.048C113.116 25.272 113.348 25.496 113.604 25.72C113.86 25.944 114.172 26.128 114.54 26.272C114.924 26.416 115.396 26.488 115.956 26.488C116.772 26.488 117.444 26.336 117.972 26.032C118.5 25.712 118.764 25.248 118.764 24.64C118.764 24.24 118.652 23.92 118.428 23.68C118.22 23.44 117.836 23.224 117.276 23.032C116.732 22.84 115.98 22.64 115.02 22.432C114.06 22.208 113.3 21.936 112.74 21.616C112.18 21.28 111.78 20.888 111.54 20.44C111.3 19.976 111.18 19.456 111.18 18.88C111.18 18.288 111.356 17.72 111.708 17.176C112.06 16.616 112.572 16.16 113.244 15.808C113.932 15.456 114.788 15.28 115.812 15.28C116.644 15.28 117.356 15.384 117.948 15.592C118.54 15.8 119.028 16.064 119.412 16.384C119.796 16.688 120.084 16.992 120.276 17.296C120.468 17.6 120.572 17.856 120.588 18.064C120.604 18.224 120.556 18.36 120.444 18.472C120.332 18.568 120.204 18.616 120.06 18.616H119.052C118.94 18.616 118.844 18.592 118.764 18.544C118.7 18.496 118.636 18.44 118.572 18.376C118.412 18.168 118.22 17.96 117.996 17.752C117.788 17.544 117.508 17.376 117.156 17.248C116.82 17.104 116.372 17.032 115.812 17.032C115.012 17.032 114.412 17.2 114.012 17.536C113.612 17.872 113.412 18.296 113.412 18.808C113.412 19.112 113.5 19.384 113.676 19.624C113.852 19.864 114.188 20.08 114.684 20.272C115.18 20.464 115.916 20.672 116.892 20.896C117.948 21.104 118.78 21.384 119.388 21.736C119.996 22.088 120.428 22.496 120.684 22.96C120.94 23.424 121.068 23.96 121.068 24.568C121.068 25.24 120.868 25.856 120.468 26.416C120.084 26.976 119.508 27.424 118.74 27.76C117.988 28.08 117.052 28.24 115.932 28.24ZM128.958 28.24C127.742 28.24 126.726 28.008 125.91 27.544C125.094 27.08 124.47 26.44 124.038 25.624C123.606 24.792 123.366 23.848 123.318 22.792C123.302 22.52 123.294 22.176 123.294 21.76C123.294 21.328 123.302 20.984 123.318 20.728C123.366 19.656 123.606 18.712 124.038 17.896C124.486 17.08 125.118 16.44 125.934 15.976C126.75 15.512 127.758 15.28 128.958 15.28C130.158 15.28 131.166 15.512 131.982 15.976C132.798 16.44 133.422 17.08 133.854 17.896C134.302 18.712 134.55 19.656 134.598 20.728C134.614 20.984 134.622 21.328 134.622 21.76C134.622 22.176 134.614 22.52 134.598 22.792C134.55 23.848 134.31 24.792 133.878 25.624C133.446 26.44 132.822 27.08 132.006 27.544C131.19 28.008 130.174 28.24 128.958 28.24ZM128.958 26.392C129.95 26.392 130.742 26.08 131.334 25.456C131.926 24.816 132.246 23.888 132.294 22.672C132.31 22.432 132.318 22.128 132.318 21.76C132.318 21.392 132.31 21.088 132.294 20.848C132.246 19.632 131.926 18.712 131.334 18.088C130.742 17.448 129.95 17.128 128.958 17.128C127.966 17.128 127.166 17.448 126.558 18.088C125.966 18.712 125.654 19.632 125.622 20.848C125.606 21.088 125.598 21.392 125.598 21.76C125.598 22.128 125.606 22.432 125.622 22.672C125.654 23.888 125.966 24.816 126.558 25.456C127.166 26.08 127.966 26.392 128.958 26.392ZM141.526 28C141.286 28 141.094 27.944 140.95 27.832C140.822 27.72 140.718 27.576 140.638 27.4L136.198 16.264C136.166 16.184 136.15 16.104 136.15 16.024C136.15 15.88 136.198 15.76 136.294 15.664C136.39 15.568 136.51 15.52 136.654 15.52H137.806C137.982 15.52 138.118 15.568 138.214 15.664C138.31 15.76 138.366 15.848 138.382 15.928L142.054 25.384L145.702 15.928C145.734 15.848 145.79 15.76 145.87 15.664C145.966 15.568 146.102 15.52 146.278 15.52H147.454C147.582 15.52 147.694 15.568 147.79 15.664C147.902 15.76 147.958 15.88 147.958 16.024C147.958 16.104 147.942 16.184 147.91 16.264L143.446 27.4C143.382 27.576 143.278 27.72 143.134 27.832C143.006 27.944 142.814 28 142.558 28H141.526ZM158.559 30.832C156.847 30.832 155.391 30.544 154.191 29.968C152.991 29.392 152.055 28.56 151.383 27.472C150.711 26.368 150.295 25.048 150.135 23.512C150.119 23.288 150.103 22.992 150.087 22.624C150.071 22.256 150.063 21.864 150.063 21.448C150.063 21.032 150.071 20.64 150.087 20.272C150.103 19.904 150.119 19.616 150.135 19.408C150.247 18.32 150.511 17.32 150.927 16.408C151.343 15.496 151.895 14.72 152.583 14.08C153.287 13.424 154.127 12.92 155.103 12.568C156.079 12.216 157.199 12.04 158.463 12.04C159.919 12.04 161.175 12.208 162.231 12.544C163.303 12.88 164.191 13.368 164.895 14.008C165.615 14.648 166.159 15.424 166.527 16.336C166.895 17.248 167.111 18.272 167.175 19.408C167.207 19.824 167.223 20.24 167.223 20.656C167.223 21.072 167.215 21.456 167.199 21.808C167.199 22.144 167.191 22.392 167.175 22.552C167.127 23.336 166.967 23.992 166.695 24.52C166.423 25.048 166.047 25.448 165.567 25.72C165.103 25.976 164.551 26.104 163.911 26.104C163.383 26.104 162.935 26.016 162.567 25.84C162.199 25.664 161.911 25.472 161.703 25.264C161.495 25.04 161.343 24.864 161.247 24.736C161.119 24.944 160.935 25.176 160.695 25.432C160.471 25.688 160.159 25.904 159.759 26.08C159.359 26.256 158.839 26.344 158.199 26.344C157.015 26.344 156.071 25.92 155.367 25.072C154.663 24.224 154.311 23.016 154.311 21.448C154.311 19.88 154.663 18.672 155.367 17.824C156.071 16.96 157.015 16.528 158.199 16.528C158.855 16.528 159.367 16.648 159.735 16.888C160.119 17.128 160.423 17.392 160.647 17.68V17.272C160.647 17.112 160.695 16.984 160.791 16.888C160.903 16.776 161.039 16.72 161.199 16.72H161.847C162.007 16.72 162.135 16.776 162.231 16.888C162.343 16.984 162.399 17.112 162.399 17.272V22.384C162.399 23.072 162.543 23.584 162.831 23.92C163.119 24.256 163.479 24.424 163.911 24.424C164.343 24.424 164.663 24.304 164.871 24.064C165.095 23.824 165.239 23.544 165.303 23.224C165.383 22.888 165.423 22.608 165.423 22.384C165.439 22.144 165.455 21.76 165.471 21.232C165.487 20.704 165.471 20.136 165.423 19.528C165.327 18.264 165.031 17.2 164.535 16.336C164.055 15.472 163.319 14.816 162.327 14.368C161.351 13.92 160.063 13.696 158.463 13.696C157.151 13.696 156.031 13.936 155.103 14.416C154.175 14.88 153.439 15.544 152.895 16.408C152.367 17.272 152.031 18.312 151.887 19.528C151.855 19.8 151.831 20.184 151.815 20.68C151.815 21.176 151.815 21.68 151.815 22.192C151.831 22.688 151.855 23.088 151.887 23.392C152.079 25.232 152.735 26.656 153.855 27.664C154.991 28.656 156.559 29.152 158.559 29.152C159.711 29.152 160.623 29.056 161.295 28.864C161.967 28.688 162.479 28.472 162.831 28.216C163.199 27.976 163.495 27.776 163.719 27.616C163.799 27.552 163.887 27.488 163.983 27.424C164.079 27.344 164.199 27.304 164.343 27.304H165.303C165.447 27.304 165.567 27.36 165.663 27.472C165.775 27.568 165.831 27.688 165.831 27.832C165.831 27.896 165.815 27.952 165.783 28C165.767 28.064 165.735 28.12 165.687 28.168C165.271 28.632 164.751 29.064 164.127 29.464C163.503 29.88 162.735 30.208 161.823 30.448C160.927 30.704 159.839 30.832 158.559 30.832ZM158.343 24.664C159.191 24.664 159.783 24.376 160.119 23.8C160.471 23.208 160.647 22.424 160.647 21.448C160.647 20.472 160.471 19.688 160.119 19.096C159.783 18.504 159.191 18.208 158.343 18.208C157.527 18.208 156.943 18.504 156.591 19.096C156.239 19.688 156.063 20.472 156.063 21.448C156.063 22.024 156.135 22.56 156.279 23.056C156.439 23.536 156.687 23.928 157.023 24.232C157.359 24.52 157.799 24.664 158.343 24.664ZM175.552 33.28C174.464 33.28 173.568 33.136 172.864 32.848C172.176 32.56 171.632 32.208 171.232 31.792C170.848 31.392 170.568 30.984 170.392 30.568C170.232 30.168 170.144 29.848 170.128 29.608C170.112 29.448 170.16 29.312 170.272 29.2C170.4 29.088 170.536 29.032 170.68 29.032H171.832C171.976 29.032 172.096 29.064 172.192 29.128C172.288 29.192 172.368 29.328 172.432 29.536C172.528 29.776 172.672 30.04 172.864 30.328C173.056 30.632 173.352 30.888 173.752 31.096C174.152 31.32 174.712 31.432 175.432 31.432C176.184 31.432 176.816 31.328 177.328 31.12C177.84 30.928 178.224 30.576 178.48 30.064C178.752 29.568 178.888 28.88 178.888 28V26.368C178.504 26.864 178 27.28 177.376 27.616C176.752 27.936 175.968 28.096 175.024 28.096C174.128 28.096 173.36 27.944 172.72 27.64C172.08 27.32 171.552 26.896 171.136 26.368C170.736 25.824 170.432 25.208 170.224 24.52C170.032 23.832 169.92 23.112 169.888 22.36C169.872 21.912 169.872 21.472 169.888 21.04C169.92 20.288 170.032 19.568 170.224 18.88C170.432 18.192 170.736 17.576 171.136 17.032C171.552 16.488 172.08 16.064 172.72 15.76C173.36 15.44 174.128 15.28 175.024 15.28C175.984 15.28 176.776 15.464 177.4 15.832C178.04 16.184 178.56 16.616 178.96 17.128V16.096C178.96 15.936 179.008 15.8 179.104 15.688C179.216 15.576 179.352 15.52 179.512 15.52H180.616C180.776 15.52 180.912 15.576 181.024 15.688C181.136 15.8 181.192 15.936 181.192 16.096V27.736C181.192 28.808 181.008 29.76 180.64 30.592C180.288 31.424 179.696 32.08 178.864 32.56C178.048 33.04 176.944 33.28 175.552 33.28ZM175.504 26.176C176.304 26.176 176.944 25.992 177.424 25.624C177.92 25.256 178.28 24.792 178.504 24.232C178.744 23.672 178.872 23.104 178.888 22.528C178.904 22.304 178.912 22.032 178.912 21.712C178.912 21.376 178.904 21.096 178.888 20.872C178.872 20.296 178.744 19.728 178.504 19.168C178.28 18.608 177.92 18.144 177.424 17.776C176.944 17.408 176.304 17.224 175.504 17.224C174.704 17.224 174.064 17.408 173.584 17.776C173.104 18.128 172.76 18.6 172.552 19.192C172.344 19.768 172.224 20.392 172.192 21.064C172.176 21.48 172.176 21.904 172.192 22.336C172.224 23.008 172.344 23.64 172.552 24.232C172.76 24.808 173.104 25.28 173.584 25.648C174.064 26 174.704 26.176 175.504 26.176ZM185.312 28C185.152 28 185.016 27.952 184.904 27.856C184.808 27.744 184.76 27.608 184.76 27.448V16.072C184.76 15.912 184.808 15.784 184.904 15.688C185.016 15.576 185.152 15.52 185.312 15.52H186.392C186.552 15.52 186.68 15.576 186.776 15.688C186.888 15.784 186.944 15.912 186.944 16.072V16.912C187.312 16.416 187.776 16.024 188.336 15.736C188.896 15.432 189.568 15.28 190.352 15.28C192.16 15.264 193.44 16 194.192 17.488C194.56 16.816 195.096 16.28 195.8 15.88C196.504 15.48 197.304 15.28 198.2 15.28C199.032 15.28 199.784 15.472 200.456 15.856C201.144 16.24 201.68 16.824 202.064 17.608C202.464 18.376 202.664 19.344 202.664 20.512V27.448C202.664 27.608 202.608 27.744 202.496 27.856C202.4 27.952 202.272 28 202.112 28H200.984C200.824 28 200.688 27.952 200.576 27.856C200.48 27.744 200.432 27.608 200.432 27.448V20.728C200.432 19.832 200.304 19.128 200.048 18.616C199.792 18.104 199.448 17.744 199.016 17.536C198.584 17.328 198.112 17.224 197.6 17.224C197.184 17.224 196.76 17.328 196.328 17.536C195.896 17.744 195.536 18.104 195.248 18.616C194.976 19.128 194.84 19.832 194.84 20.728V27.448C194.84 27.608 194.784 27.744 194.672 27.856C194.576 27.952 194.448 28 194.288 28H193.16C193 28 192.864 27.952 192.752 27.856C192.656 27.744 192.608 27.608 192.608 27.448V20.728C192.608 19.832 192.472 19.128 192.2 18.616C191.928 18.104 191.576 17.744 191.144 17.536C190.712 17.328 190.256 17.224 189.776 17.224C189.36 17.224 188.936 17.328 188.504 17.536C188.072 17.744 187.712 18.104 187.424 18.616C187.152 19.128 187.016 19.824 187.016 20.704V27.448C187.016 27.608 186.96 27.744 186.848 27.856C186.752 27.952 186.624 28 186.464 28H185.312ZM209.569 28.24C208.769 28.24 208.041 28.08 207.385 27.76C206.729 27.44 206.201 27.008 205.801 26.464C205.401 25.92 205.201 25.304 205.201 24.616C205.201 23.512 205.649 22.632 206.545 21.976C207.441 21.32 208.609 20.888 210.049 20.68L213.625 20.176V19.48C213.625 18.712 213.401 18.112 212.953 17.68C212.521 17.248 211.809 17.032 210.817 17.032C210.097 17.032 209.513 17.176 209.065 17.464C208.633 17.752 208.329 18.12 208.153 18.568C208.057 18.808 207.889 18.928 207.649 18.928H206.569C206.393 18.928 206.257 18.88 206.161 18.784C206.081 18.672 206.041 18.544 206.041 18.4C206.041 18.16 206.129 17.864 206.305 17.512C206.497 17.16 206.785 16.816 207.169 16.48C207.553 16.144 208.041 15.864 208.633 15.64C209.241 15.4 209.977 15.28 210.841 15.28C211.801 15.28 212.609 15.408 213.265 15.664C213.921 15.904 214.433 16.232 214.801 16.648C215.185 17.064 215.457 17.536 215.617 18.064C215.793 18.592 215.881 19.128 215.881 19.672V27.448C215.881 27.608 215.825 27.744 215.713 27.856C215.617 27.952 215.489 28 215.329 28H214.225C214.049 28 213.913 27.952 213.817 27.856C213.721 27.744 213.673 27.608 213.673 27.448V26.416C213.465 26.704 213.185 26.992 212.833 27.28C212.481 27.552 212.041 27.784 211.513 27.976C210.985 28.152 210.337 28.24 209.569 28.24ZM210.073 26.44C210.729 26.44 211.329 26.304 211.873 26.032C212.417 25.744 212.841 25.304 213.145 24.712C213.465 24.12 213.625 23.376 213.625 22.48V21.808L210.841 22.216C209.705 22.376 208.849 22.648 208.273 23.032C207.697 23.4 207.409 23.872 207.409 24.448C207.409 24.896 207.537 25.272 207.793 25.576C208.065 25.864 208.401 26.08 208.801 26.224C209.217 26.368 209.641 26.44 210.073 26.44ZM219.883 28C219.723 28 219.587 27.952 219.475 27.856C219.379 27.744 219.331 27.608 219.331 27.448V16.072C219.331 15.912 219.379 15.784 219.475 15.688C219.587 15.576 219.723 15.52 219.883 15.52H221.035C221.195 15.52 221.323 15.576 221.419 15.688C221.515 15.784 221.563 15.912 221.563 16.072V27.448C221.563 27.608 221.515 27.744 221.419 27.856C221.323 27.952 221.195 28 221.035 28H219.883ZM219.691 13.192C219.531 13.192 219.395 13.144 219.283 13.048C219.187 12.936 219.139 12.8 219.139 12.64V11.344C219.139 11.184 219.187 11.056 219.283 10.96C219.395 10.848 219.531 10.792 219.691 10.792H221.203C221.363 10.792 221.491 10.848 221.587 10.96C221.699 11.056 221.755 11.184 221.755 11.344V12.64C221.755 12.8 221.699 12.936 221.587 13.048C221.491 13.144 221.363 13.192 221.203 13.192H219.691ZM225.719 28C225.559 28 225.423 27.952 225.311 27.856C225.215 27.744 225.167 27.608 225.167 27.448V11.512C225.167 11.352 225.215 11.224 225.311 11.128C225.423 11.016 225.559 10.96 225.719 10.96H226.847C227.023 10.96 227.159 11.016 227.255 11.128C227.351 11.224 227.399 11.352 227.399 11.512V27.448C227.399 27.608 227.351 27.744 227.255 27.856C227.159 27.952 227.023 28 226.847 28H225.719ZM231.363 28C231.203 28 231.067 27.952 230.955 27.856C230.859 27.744 230.811 27.608 230.811 27.448V25.72C230.811 25.56 230.859 25.432 230.955 25.336C231.067 25.224 231.203 25.168 231.363 25.168H233.091C233.251 25.168 233.379 25.224 233.475 25.336C233.587 25.432 233.643 25.56 233.643 25.72V27.448C233.643 27.608 233.587 27.744 233.475 27.856C233.379 27.952 233.251 28 233.091 28H231.363ZM241.832 28.24C240.696 28.24 239.712 28.024 238.88 27.592C238.064 27.144 237.432 26.512 236.984 25.696C236.536 24.864 236.296 23.872 236.264 22.72C236.248 22.48 236.24 22.16 236.24 21.76C236.24 21.36 236.248 21.04 236.264 20.8C236.296 19.648 236.536 18.664 236.984 17.848C237.432 17.016 238.064 16.384 238.88 15.952C239.712 15.504 240.696 15.28 241.832 15.28C242.76 15.28 243.552 15.408 244.208 15.664C244.88 15.92 245.432 16.248 245.864 16.648C246.296 17.048 246.616 17.48 246.824 17.944C247.048 18.408 247.168 18.848 247.184 19.264C247.2 19.424 247.152 19.552 247.04 19.648C246.928 19.744 246.792 19.792 246.632 19.792H245.48C245.32 19.792 245.2 19.76 245.12 19.696C245.04 19.616 244.96 19.488 244.88 19.312C244.592 18.528 244.2 17.976 243.704 17.656C243.208 17.336 242.592 17.176 241.856 17.176C240.896 17.176 240.112 17.472 239.504 18.064C238.912 18.656 238.592 19.608 238.544 20.92C238.528 21.496 238.528 22.056 238.544 22.6C238.592 23.928 238.912 24.888 239.504 25.48C240.112 26.056 240.896 26.344 241.856 26.344C242.592 26.344 243.208 26.184 243.704 25.864C244.2 25.544 244.592 24.992 244.88 24.208C244.96 24.032 245.04 23.912 245.12 23.848C245.2 23.768 245.32 23.728 245.48 23.728H246.632C246.792 23.728 246.928 23.776 247.04 23.872C247.152 23.968 247.2 24.096 247.184 24.256C247.168 24.592 247.096 24.936 246.968 25.288C246.84 25.64 246.632 26 246.344 26.368C246.072 26.72 245.728 27.04 245.312 27.328C244.896 27.6 244.392 27.824 243.8 28C243.224 28.16 242.568 28.24 241.832 28.24ZM255.146 28.24C253.93 28.24 252.914 28.008 252.098 27.544C251.282 27.08 250.658 26.44 250.226 25.624C249.794 24.792 249.554 23.848 249.506 22.792C249.49 22.52 249.482 22.176 249.482 21.76C249.482 21.328 249.49 20.984 249.506 20.728C249.554 19.656 249.794 18.712 250.226 17.896C250.674 17.08 251.306 16.44 252.122 15.976C252.938 15.512 253.946 15.28 255.146 15.28C256.346 15.28 257.354 15.512 258.17 15.976C258.986 16.44 259.61 17.08 260.042 17.896C260.49 18.712 260.738 19.656 260.786 20.728C260.802 20.984 260.81 21.328 260.81 21.76C260.81 22.176 260.802 22.52 260.786 22.792C260.738 23.848 260.498 24.792 260.066 25.624C259.634 26.44 259.01 27.08 258.194 27.544C257.378 28.008 256.362 28.24 255.146 28.24ZM255.146 26.392C256.138 26.392 256.93 26.08 257.522 25.456C258.114 24.816 258.434 23.888 258.482 22.672C258.498 22.432 258.506 22.128 258.506 21.76C258.506 21.392 258.498 21.088 258.482 20.848C258.434 19.632 258.114 18.712 257.522 18.088C256.93 17.448 256.138 17.128 255.146 17.128C254.154 17.128 253.354 17.448 252.746 18.088C252.154 18.712 251.842 19.632 251.81 20.848C251.794 21.088 251.786 21.392 251.786 21.76C251.786 22.128 251.794 22.432 251.81 22.672C251.842 23.888 252.154 24.816 252.746 25.456C253.354 26.08 254.154 26.392 255.146 26.392ZM264.367 28C264.207 28 264.071 27.952 263.959 27.856C263.863 27.744 263.815 27.608 263.815 27.448V16.072C263.815 15.912 263.863 15.784 263.959 15.688C264.071 15.576 264.207 15.52 264.367 15.52H265.447C265.607 15.52 265.735 15.576 265.831 15.688C265.943 15.784 265.999 15.912 265.999 16.072V16.912C266.367 16.416 266.831 16.024 267.391 15.736C267.951 15.432 268.623 15.28 269.407 15.28C271.215 15.264 272.495 16 273.247 17.488C273.615 16.816 274.151 16.28 274.855 15.88C275.559 15.48 276.359 15.28 277.255 15.28C278.087 15.28 278.839 15.472 279.511 15.856C280.199 16.24 280.735 16.824 281.119 17.608C281.519 18.376 281.719 19.344 281.719 20.512V27.448C281.719 27.608 281.663 27.744 281.551 27.856C281.455 27.952 281.327 28 281.167 28H280.039C279.879 28 279.743 27.952 279.631 27.856C279.535 27.744 279.487 27.608 279.487 27.448V20.728C279.487 19.832 279.359 19.128 279.103 18.616C278.847 18.104 278.503 17.744 278.071 17.536C277.639 17.328 277.167 17.224 276.655 17.224C276.239 17.224 275.815 17.328 275.383 17.536C274.951 17.744 274.591 18.104 274.303 18.616C274.031 19.128 273.895 19.832 273.895 20.728V27.448C273.895 27.608 273.839 27.744 273.727 27.856C273.631 27.952 273.503 28 273.343 28H272.215C272.055 28 271.919 27.952 271.807 27.856C271.711 27.744 271.663 27.608 271.663 27.448V20.728C271.663 19.832 271.527 19.128 271.255 18.616C270.983 18.104 270.631 17.744 270.199 17.536C269.767 17.328 269.311 17.224 268.831 17.224C268.415 17.224 267.991 17.328 267.559 17.536C267.127 17.744 266.767 18.104 266.479 18.616C266.207 19.128 266.071 19.824 266.071 20.704V27.448C266.071 27.608 266.015 27.744 265.903 27.856C265.807 27.952 265.679 28 265.519 28H264.367Z" fill="#343B4E"/>
<a href="mailto:iavaisov@gmail.com">
<rect fill="black" fill-opacity="0" y="3.78" width="224.375" height="28.44"/>
</a>
<circle cx="20.5" cy="20.5" r="20.5" fill="#343B4E"/>
<path d="M26.8782 22.6959L26.9346 22.3479H26.582H20.7994V19.2648H30.36C30.4411 19.7825 30.4813 20.2776 30.4813 20.7506C30.4813 22.7257 30.0675 24.4781 29.2471 26.0153C28.4275 27.5509 27.2611 28.7489 25.743 29.6138C24.2265 30.4778 22.4815 30.9137 20.4994 30.9137C19.0789 30.9137 17.7286 30.6403 16.4457 30.0937C15.1582 29.5452 14.0515 28.8058 13.1223 27.8766C12.1931 26.9474 11.4537 25.8407 10.9052 24.5532C10.3586 23.2703 10.0852 21.9199 10.0852 20.4994C10.0852 19.0789 10.3586 17.7286 10.9052 16.4457C11.4537 15.1582 12.1931 14.0515 13.1223 13.1223C14.0515 12.1931 15.1582 11.4537 16.4457 10.9052C17.7286 10.3586 19.0789 10.0852 20.4994 10.0852C23.1069 10.0852 25.3506 10.9212 27.245 12.5954L24.7645 14.981C23.598 13.9476 22.1704 13.4333 20.4994 13.4333C19.2465 13.4333 18.0844 13.7497 17.019 14.3821C15.9557 15.0133 15.1122 15.8717 14.4915 16.9531C13.8694 18.0368 13.5588 19.2208 13.5588 20.4994C13.5588 21.7781 13.8694 22.9621 14.4915 24.0458C15.1122 25.1272 15.9557 25.9856 17.019 26.6168C18.0844 27.2492 19.2465 27.5656 20.4994 27.5656C21.3363 27.5656 22.1124 27.4502 22.8253 27.2158C23.5272 26.985 24.1176 26.6923 24.5881 26.3319C25.0459 25.9812 25.4463 25.581 25.7884 25.1314C26.1255 24.6884 26.3804 24.2605 26.5464 23.848C26.7068 23.4497 26.8182 23.0654 26.8782 22.6959Z" fill="white" stroke="#343B4E" stroke-width="0.6"/>
</svg>
