<svg width="272" height="41" viewBox="0 0 272 41" fill="none" xmlns="http://www.w3.org/2000/svg">
<path d="M66.032 27.208C65.872 27.208 65.736 27.16 65.624 27.064C65.528 26.952 65.48 26.816 65.48 26.656V21.664H60.56C60.4 21.664 60.264 21.616 60.152 21.52C60.056 21.408 60.008 21.272 60.008 21.112V20.344C60.008 20.184 60.056 20.056 60.152 19.96C60.264 19.848 60.4 19.792 60.56 19.792H65.48V14.944C65.48 14.784 65.528 14.656 65.624 14.56C65.736 14.448 65.872 14.392 66.032 14.392H66.872C67.032 14.392 67.16 14.448 67.256 14.56C67.368 14.656 67.424 14.784 67.424 14.944V19.792H72.368C72.528 19.792 72.656 19.848 72.752 19.96C72.864 20.056 72.92 20.184 72.92 20.344V21.112C72.92 21.272 72.864 21.408 72.752 21.52C72.656 21.616 72.528 21.664 72.368 21.664H67.424V26.656C67.424 26.816 67.368 26.952 67.256 27.064C67.16 27.16 67.032 27.208 66.872 27.208H66.032ZM76.2401 28C76.0961 28 75.9761 27.952 75.8801 27.856C75.8001 27.744 75.7601 27.616 75.7601 27.472C75.7601 27.424 75.7761 27.352 75.8081 27.256L81.7841 13.288H73.9121C73.7521 13.288 73.6161 13.24 73.5041 13.144C73.4081 13.032 73.3601 12.896 73.3601 12.736V11.776C73.3601 11.6 73.4081 11.464 73.5041 11.368C73.6161 11.256 73.7521 11.2 73.9121 11.2H83.7521C83.9281 11.2 84.0641 11.256 84.1601 11.368C84.2721 11.464 84.3281 11.6 84.3281 11.776V12.664C84.3281 12.872 84.3121 13.04 84.2801 13.168C84.2481 13.296 84.2001 13.44 84.1361 13.6L78.2081 27.4C78.1601 27.528 78.0801 27.664 77.9681 27.808C77.8721 27.936 77.7281 28 77.5361 28H76.2401ZM97.8356 31.816C96.7956 31.816 95.9156 31.592 95.1956 31.144C94.4756 30.712 93.8996 30.04 93.4676 29.128C93.0356 28.216 92.7156 27.056 92.5076 25.648C92.3156 24.224 92.2196 22.536 92.2196 20.584C92.2196 18.632 92.3156 16.952 92.5076 15.544C92.7156 14.12 93.0356 12.952 93.4676 12.04C93.8996 11.128 94.4756 10.456 95.1956 10.024C95.9156 9.592 96.7956 9.376 97.8356 9.376C97.9796 9.376 98.1076 9.432 98.2196 9.544C98.3316 9.656 98.3876 9.784 98.3876 9.928V10.768C98.3876 10.912 98.3316 11.04 98.2196 11.152C98.1236 11.264 98.0196 11.32 97.9076 11.32C97.2356 11.336 96.6676 11.512 96.2036 11.848C95.7556 12.168 95.3876 12.688 95.0996 13.408C94.8276 14.128 94.6276 15.08 94.4996 16.264C94.3876 17.432 94.3316 18.872 94.3316 20.584C94.3316 22.296 94.3876 23.744 94.4996 24.928C94.6276 26.096 94.8276 27.048 95.0996 27.784C95.3876 28.504 95.7556 29.024 96.2036 29.344C96.6676 29.68 97.2356 29.856 97.9076 29.872C98.0196 29.872 98.1236 29.928 98.2196 30.04C98.3316 30.152 98.3876 30.28 98.3876 30.424V31.264C98.3876 31.408 98.3316 31.536 98.2196 31.648C98.1076 31.76 97.9796 31.816 97.8356 31.816ZM107.577 28C107.417 28 107.281 27.952 107.169 27.856C107.073 27.744 107.025 27.608 107.025 27.448V23.992H99.2491C99.0891 23.992 98.9531 23.944 98.8411 23.848C98.7451 23.736 98.6971 23.6 98.6971 23.44V22.48C98.6971 22.416 98.7131 22.32 98.7451 22.192C98.7931 22.048 98.8651 21.904 98.9611 21.76L106.161 11.608C106.353 11.336 106.649 11.2 107.049 11.2H108.777C108.937 11.2 109.065 11.256 109.161 11.368C109.273 11.464 109.329 11.592 109.329 11.752V21.904H111.489C111.665 21.904 111.801 21.96 111.897 22.072C112.009 22.168 112.065 22.296 112.065 22.456V23.44C112.065 23.6 112.009 23.736 111.897 23.848C111.801 23.944 111.673 23.992 111.513 23.992H109.329V27.448C109.329 27.608 109.273 27.744 109.161 27.856C109.065 27.952 108.937 28 108.777 28H107.577ZM101.265 21.952H107.049V13.72L101.265 21.952ZM117.304 28C117.16 28 117.04 27.952 116.944 27.856C116.864 27.744 116.824 27.616 116.824 27.472C116.824 27.392 116.832 27.328 116.848 27.28C116.88 27.232 116.904 27.192 116.92 27.16L120.592 22.048C120.192 22.144 119.76 22.192 119.296 22.192C118.4 22.176 117.6 22.016 116.896 21.712C116.192 21.408 115.592 21 115.096 20.488C114.6 19.96 114.224 19.368 113.968 18.712C113.712 18.056 113.584 17.368 113.584 16.648C113.584 15.944 113.704 15.256 113.944 14.584C114.2 13.912 114.576 13.304 115.072 12.76C115.584 12.216 116.216 11.784 116.968 11.464C117.72 11.128 118.608 10.96 119.632 10.96C120.64 10.96 121.52 11.12 122.272 11.44C123.04 11.744 123.68 12.168 124.192 12.712C124.72 13.24 125.104 13.84 125.344 14.512C125.6 15.184 125.728 15.88 125.728 16.6C125.728 17.256 125.632 17.856 125.44 18.4C125.248 18.944 125.016 19.432 124.744 19.864C124.488 20.296 124.232 20.696 123.976 21.064L119.368 27.52C119.304 27.6 119.216 27.704 119.104 27.832C118.992 27.944 118.824 28 118.6 28H117.304ZM119.632 20.248C120.304 20.248 120.92 20.104 121.48 19.816C122.056 19.512 122.512 19.096 122.848 18.568C123.184 18.024 123.352 17.376 123.352 16.624C123.352 15.872 123.184 15.232 122.848 14.704C122.512 14.16 122.056 13.744 121.48 13.456C120.92 13.152 120.304 13 119.632 13C118.976 13 118.368 13.152 117.808 13.456C117.248 13.744 116.8 14.16 116.464 14.704C116.128 15.232 115.96 15.872 115.96 16.624C115.96 17.376 116.128 18.024 116.464 18.568C116.8 19.096 117.248 19.512 117.808 19.816C118.368 20.104 118.976 20.248 119.632 20.248ZM133.906 28.24C132.642 28.24 131.57 28.024 130.69 27.592C129.826 27.144 129.162 26.568 128.698 25.864C128.25 25.16 128.01 24.416 127.978 23.632C127.962 23.488 128.002 23.376 128.098 23.296C128.194 23.216 128.314 23.176 128.458 23.176H129.754C129.898 23.176 130.026 23.208 130.138 23.272C130.25 23.336 130.338 23.472 130.402 23.68C130.562 24.272 130.818 24.76 131.17 25.144C131.538 25.512 131.954 25.784 132.418 25.96C132.898 26.12 133.394 26.2 133.906 26.2C134.594 26.2 135.218 26.064 135.778 25.792C136.354 25.504 136.81 25.088 137.146 24.544C137.482 23.984 137.65 23.312 137.65 22.528C137.65 21.808 137.482 21.192 137.146 20.68C136.826 20.152 136.378 19.752 135.802 19.48C135.242 19.192 134.61 19.048 133.906 19.048C133.378 19.048 132.946 19.112 132.61 19.24C132.274 19.368 131.986 19.52 131.746 19.696C131.522 19.872 131.314 20.024 131.122 20.152C130.946 20.28 130.746 20.344 130.522 20.344H129.274C129.13 20.344 129.002 20.296 128.89 20.2C128.778 20.088 128.73 19.96 128.746 19.816L129.514 11.8C129.53 11.608 129.586 11.464 129.682 11.368C129.794 11.256 129.938 11.2 130.114 11.2H138.49C138.65 11.2 138.778 11.256 138.874 11.368C138.986 11.464 139.042 11.592 139.042 11.752V12.688C139.042 12.864 138.986 13 138.874 13.096C138.778 13.192 138.65 13.24 138.49 13.24H131.578L131.122 17.968C131.346 17.824 131.706 17.656 132.202 17.464C132.698 17.256 133.378 17.152 134.242 17.152C135.026 17.152 135.762 17.272 136.45 17.512C137.154 17.752 137.778 18.104 138.322 18.568C138.866 19.032 139.29 19.6 139.594 20.272C139.898 20.928 140.05 21.688 140.05 22.552C140.05 23.768 139.778 24.8 139.234 25.648C138.706 26.496 137.978 27.144 137.05 27.592C136.138 28.024 135.09 28.24 133.906 28.24ZM142.276 31.816C142.132 31.816 142.004 31.76 141.892 31.648C141.78 31.536 141.724 31.408 141.724 31.264V30.424C141.724 30.28 141.772 30.152 141.868 30.04C141.98 29.928 142.1 29.872 142.228 29.872C142.9 29.856 143.46 29.68 143.908 29.344C144.372 29.024 144.74 28.504 145.012 27.784C145.284 27.048 145.484 26.096 145.612 24.928C145.74 23.744 145.804 22.296 145.804 20.584C145.804 18.872 145.74 17.432 145.612 16.264C145.484 15.08 145.284 14.128 145.012 13.408C144.74 12.688 144.372 12.168 143.908 11.848C143.46 11.512 142.9 11.336 142.228 11.32C142.1 11.32 141.98 11.264 141.868 11.152C141.772 11.04 141.724 10.912 141.724 10.768V9.928C141.724 9.784 141.78 9.656 141.892 9.544C142.004 9.432 142.132 9.376 142.276 9.376C143.316 9.376 144.196 9.592 144.916 10.024C145.636 10.456 146.212 11.128 146.644 12.04C147.076 12.952 147.388 14.12 147.58 15.544C147.788 16.952 147.892 18.632 147.892 20.584C147.892 22.536 147.788 24.224 147.58 25.648C147.388 27.056 147.076 28.216 146.644 29.128C146.212 30.04 145.636 30.712 144.916 31.144C144.196 31.592 143.316 31.816 142.276 31.816ZM161.765 28C161.605 28 161.469 27.952 161.357 27.856C161.261 27.744 161.213 27.608 161.213 27.448V14.008L157.229 17.08C157.101 17.176 156.965 17.216 156.821 17.2C156.677 17.184 156.557 17.112 156.461 16.984L155.837 16.192C155.741 16.048 155.701 15.904 155.717 15.76C155.749 15.616 155.829 15.496 155.957 15.4L161.189 11.368C161.301 11.288 161.405 11.24 161.501 11.224C161.597 11.208 161.701 11.2 161.813 11.2H163.037C163.197 11.2 163.325 11.256 163.421 11.368C163.517 11.464 163.565 11.592 163.565 11.752V27.448C163.565 27.608 163.517 27.744 163.421 27.856C163.325 27.952 163.197 28 163.037 28H161.765ZM168.982 28C168.838 28 168.718 27.952 168.622 27.856C168.542 27.744 168.502 27.616 168.502 27.472C168.502 27.424 168.518 27.352 168.55 27.256L174.526 13.288H166.654C166.494 13.288 166.358 13.24 166.246 13.144C166.15 13.032 166.102 12.896 166.102 12.736V11.776C166.102 11.6 166.15 11.464 166.246 11.368C166.358 11.256 166.494 11.2 166.654 11.2H176.494C176.67 11.2 176.806 11.256 176.902 11.368C177.014 11.464 177.07 11.6 177.07 11.776V12.664C177.07 12.872 177.054 13.04 177.022 13.168C176.99 13.296 176.942 13.44 176.878 13.6L170.95 27.4C170.902 27.528 170.822 27.664 170.71 27.808C170.614 27.936 170.47 28 170.278 28H168.982ZM181.287 28C181.143 28 181.023 27.952 180.927 27.856C180.847 27.744 180.807 27.616 180.807 27.472C180.807 27.424 180.823 27.352 180.855 27.256L186.831 13.288H178.959C178.799 13.288 178.663 13.24 178.551 13.144C178.455 13.032 178.407 12.896 178.407 12.736V11.776C178.407 11.6 178.455 11.464 178.551 11.368C178.663 11.256 178.799 11.2 178.959 11.2H188.799C188.975 11.2 189.111 11.256 189.207 11.368C189.319 11.464 189.375 11.6 189.375 11.776V12.664C189.375 12.872 189.359 13.04 189.327 13.168C189.295 13.296 189.247 13.44 189.183 13.6L183.255 27.4C183.207 27.528 183.127 27.664 183.015 27.808C182.919 27.936 182.775 28 182.583 28H181.287ZM191.38 21.808C191.22 21.808 191.084 21.76 190.972 21.664C190.876 21.552 190.828 21.416 190.828 21.256V20.344C190.828 20.184 190.876 20.056 190.972 19.96C191.084 19.848 191.22 19.792 191.38 19.792H198.58C198.74 19.792 198.868 19.848 198.964 19.96C199.076 20.056 199.132 20.184 199.132 20.344V21.256C199.132 21.416 199.076 21.552 198.964 21.664C198.868 21.76 198.74 21.808 198.58 21.808H191.38ZM207.594 28.24C206.33 28.24 205.258 28.024 204.378 27.592C203.514 27.144 202.85 26.568 202.386 25.864C201.938 25.16 201.698 24.416 201.666 23.632C201.65 23.488 201.69 23.376 201.786 23.296C201.882 23.216 202.002 23.176 202.146 23.176H203.442C203.586 23.176 203.714 23.208 203.826 23.272C203.938 23.336 204.026 23.472 204.09 23.68C204.25 24.272 204.506 24.76 204.858 25.144C205.226 25.512 205.642 25.784 206.106 25.96C206.586 26.12 207.082 26.2 207.594 26.2C208.282 26.2 208.906 26.064 209.466 25.792C210.042 25.504 210.498 25.088 210.834 24.544C211.17 23.984 211.338 23.312 211.338 22.528C211.338 21.808 211.17 21.192 210.834 20.68C210.514 20.152 210.066 19.752 209.49 19.48C208.93 19.192 208.298 19.048 207.594 19.048C207.066 19.048 206.634 19.112 206.298 19.24C205.962 19.368 205.674 19.52 205.434 19.696C205.21 19.872 205.002 20.024 204.81 20.152C204.634 20.28 204.434 20.344 204.21 20.344H202.962C202.818 20.344 202.69 20.296 202.578 20.2C202.466 20.088 202.418 19.96 202.434 19.816L203.202 11.8C203.218 11.608 203.274 11.464 203.37 11.368C203.482 11.256 203.626 11.2 203.802 11.2H212.178C212.338 11.2 212.466 11.256 212.562 11.368C212.674 11.464 212.73 11.592 212.73 11.752V12.688C212.73 12.864 212.674 13 212.562 13.096C212.466 13.192 212.338 13.24 212.178 13.24H205.266L204.81 17.968C205.034 17.824 205.394 17.656 205.89 17.464C206.386 17.256 207.066 17.152 207.93 17.152C208.714 17.152 209.45 17.272 210.138 17.512C210.842 17.752 211.466 18.104 212.01 18.568C212.554 19.032 212.978 19.6 213.282 20.272C213.586 20.928 213.738 21.688 213.738 22.552C213.738 23.768 213.466 24.8 212.922 25.648C212.394 26.496 211.666 27.144 210.738 27.592C209.826 28.024 208.778 28.24 207.594 28.24ZM222.468 28.24C221.54 28.24 220.684 28.128 219.9 27.904C219.132 27.664 218.468 27.328 217.908 26.896C217.364 26.448 216.94 25.912 216.636 25.288C216.332 24.664 216.18 23.96 216.18 23.176C216.18 22.2 216.412 21.36 216.876 20.656C217.356 19.952 217.988 19.416 218.772 19.048C218.148 18.68 217.66 18.2 217.308 17.608C216.956 17.016 216.78 16.312 216.78 15.496C216.78 14.536 217.012 13.728 217.476 13.072C217.956 12.4 218.62 11.88 219.468 11.512C220.332 11.144 221.332 10.96 222.468 10.96C223.588 10.96 224.572 11.144 225.42 11.512C226.284 11.864 226.948 12.376 227.412 13.048C227.892 13.72 228.132 14.528 228.132 15.472C228.132 16.288 227.956 17 227.604 17.608C227.252 18.2 226.772 18.68 226.164 19.048C226.948 19.416 227.572 19.952 228.036 20.656C228.516 21.36 228.756 22.2 228.756 23.176C228.756 24.216 228.492 25.12 227.964 25.888C227.436 26.64 226.7 27.224 225.756 27.64C224.812 28.04 223.716 28.24 222.468 28.24ZM222.468 26.32C223.204 26.32 223.868 26.192 224.46 25.936C225.052 25.68 225.524 25.32 225.876 24.856C226.228 24.376 226.404 23.816 226.404 23.176C226.404 22.52 226.228 21.968 225.876 21.52C225.524 21.056 225.052 20.704 224.46 20.464C223.868 20.208 223.204 20.08 222.468 20.08C221.732 20.08 221.06 20.208 220.452 20.464C219.86 20.704 219.388 21.056 219.036 21.52C218.684 21.968 218.508 22.52 218.508 23.176C218.508 23.816 218.684 24.376 219.036 24.856C219.388 25.32 219.86 25.68 220.452 25.936C221.06 26.192 221.732 26.32 222.468 26.32ZM222.468 18.184C223.076 18.184 223.636 18.072 224.148 17.848C224.676 17.624 225.092 17.32 225.396 16.936C225.716 16.552 225.876 16.088 225.876 15.544C225.876 15 225.724 14.528 225.42 14.128C225.132 13.728 224.724 13.424 224.196 13.216C223.684 12.992 223.108 12.88 222.468 12.88C221.828 12.88 221.244 12.992 220.716 13.216C220.204 13.424 219.796 13.728 219.492 14.128C219.188 14.528 219.036 15 219.036 15.544C219.036 16.104 219.188 16.584 219.492 16.984C219.796 17.368 220.204 17.664 220.716 17.872C221.244 18.08 221.828 18.184 222.468 18.184ZM232.302 21.808C232.142 21.808 232.006 21.76 231.894 21.664C231.798 21.552 231.75 21.416 231.75 21.256V20.344C231.75 20.184 231.798 20.056 231.894 19.96C232.006 19.848 232.142 19.792 232.302 19.792H239.502C239.662 19.792 239.79 19.848 239.886 19.96C239.998 20.056 240.054 20.184 240.054 20.344V21.256C240.054 21.416 239.998 21.552 239.886 21.664C239.79 21.76 239.662 21.808 239.502 21.808H232.302ZM248.516 28.24C247.252 28.24 246.18 28.024 245.3 27.592C244.436 27.144 243.772 26.568 243.308 25.864C242.86 25.16 242.62 24.416 242.588 23.632C242.572 23.488 242.612 23.376 242.708 23.296C242.804 23.216 242.924 23.176 243.068 23.176H244.364C244.508 23.176 244.636 23.208 244.748 23.272C244.86 23.336 244.948 23.472 245.012 23.68C245.172 24.272 245.428 24.76 245.78 25.144C246.148 25.512 246.564 25.784 247.028 25.96C247.508 26.12 248.004 26.2 248.516 26.2C249.204 26.2 249.828 26.064 250.388 25.792C250.964 25.504 251.42 25.088 251.756 24.544C252.092 23.984 252.26 23.312 252.26 22.528C252.26 21.808 252.092 21.192 251.756 20.68C251.436 20.152 250.988 19.752 250.412 19.48C249.852 19.192 249.22 19.048 248.516 19.048C247.988 19.048 247.556 19.112 247.22 19.24C246.884 19.368 246.596 19.52 246.356 19.696C246.132 19.872 245.924 20.024 245.732 20.152C245.556 20.28 245.356 20.344 245.132 20.344H243.884C243.74 20.344 243.612 20.296 243.5 20.2C243.388 20.088 243.34 19.96 243.356 19.816L244.124 11.8C244.14 11.608 244.196 11.464 244.292 11.368C244.404 11.256 244.548 11.2 244.724 11.2H253.1C253.26 11.2 253.388 11.256 253.484 11.368C253.596 11.464 253.652 11.592 253.652 11.752V12.688C253.652 12.864 253.596 13 253.484 13.096C253.388 13.192 253.26 13.24 253.1 13.24H246.188L245.732 17.968C245.956 17.824 246.316 17.656 246.812 17.464C247.308 17.256 247.988 17.152 248.852 17.152C249.636 17.152 250.372 17.272 251.06 17.512C251.764 17.752 252.388 18.104 252.932 18.568C253.476 19.032 253.9 19.6 254.204 20.272C254.508 20.928 254.66 21.688 254.66 22.552C254.66 23.768 254.388 24.8 253.844 25.648C253.316 26.496 252.588 27.144 251.66 27.592C250.748 28.024 249.7 28.24 248.516 28.24ZM263.39 28.24C262.462 28.24 261.606 28.128 260.822 27.904C260.054 27.664 259.39 27.328 258.83 26.896C258.286 26.448 257.862 25.912 257.558 25.288C257.254 24.664 257.102 23.96 257.102 23.176C257.102 22.2 257.334 21.36 257.798 20.656C258.278 19.952 258.91 19.416 259.694 19.048C259.07 18.68 258.582 18.2 258.23 17.608C257.878 17.016 257.702 16.312 257.702 15.496C257.702 14.536 257.934 13.728 258.398 13.072C258.878 12.4 259.542 11.88 260.39 11.512C261.254 11.144 262.254 10.96 263.39 10.96C264.51 10.96 265.494 11.144 266.342 11.512C267.206 11.864 267.87 12.376 268.334 13.048C268.814 13.72 269.054 14.528 269.054 15.472C269.054 16.288 268.878 17 268.526 17.608C268.174 18.2 267.694 18.68 267.086 19.048C267.87 19.416 268.494 19.952 268.958 20.656C269.438 21.36 269.678 22.2 269.678 23.176C269.678 24.216 269.414 25.12 268.886 25.888C268.358 26.64 267.622 27.224 266.678 27.64C265.734 28.04 264.638 28.24 263.39 28.24ZM263.39 26.32C264.126 26.32 264.79 26.192 265.382 25.936C265.974 25.68 266.446 25.32 266.798 24.856C267.15 24.376 267.326 23.816 267.326 23.176C267.326 22.52 267.15 21.968 266.798 21.52C266.446 21.056 265.974 20.704 265.382 20.464C264.79 20.208 264.126 20.08 263.39 20.08C262.654 20.08 261.982 20.208 261.374 20.464C260.782 20.704 260.31 21.056 259.958 21.52C259.606 21.968 259.43 22.52 259.43 23.176C259.43 23.816 259.606 24.376 259.958 24.856C260.31 25.32 260.782 25.68 261.374 25.936C261.982 26.192 262.654 26.32 263.39 26.32ZM263.39 18.184C263.998 18.184 264.558 18.072 265.07 17.848C265.598 17.624 266.014 17.32 266.318 16.936C266.638 16.552 266.798 16.088 266.798 15.544C266.798 15 266.646 14.528 266.342 14.128C266.054 13.728 265.646 13.424 265.118 13.216C264.606 12.992 264.03 12.88 263.39 12.88C262.75 12.88 262.166 12.992 261.638 13.216C261.126 13.424 260.718 13.728 260.414 14.128C260.11 14.528 259.958 15 259.958 15.544C259.958 16.104 260.11 16.584 260.414 16.984C260.718 17.368 261.126 17.664 261.638 17.872C262.166 18.08 262.75 18.184 263.39 18.184Z" fill="#343B4E"/>
<circle cx="20.5" cy="20.5" r="20.5" fill="#343B4E"/>
<path d="M24.4233 22.2371L22.9812 23.0495C22.8082 23.1469 22.608 23.185 22.4112 23.158C22.2145 23.131 22.0319 23.0403 21.8916 22.8998L17.0785 18.0867C16.9381 17.9463 16.8475 17.7638 16.8205 17.5671C16.7934 17.3703 16.8315 17.1702 16.9288 16.9971L17.7412 15.555C17.8875 15.2955 17.9447 14.9952 17.9042 14.7001C17.8638 14.4049 17.7278 14.1311 17.5171 13.9205L15.3557 11.7592C15.229 11.6324 15.0786 11.5319 14.9131 11.4633C14.7475 11.3947 14.5701 11.3594 14.3909 11.3594C14.2117 11.3594 14.0342 11.3947 13.8687 11.4633C13.7031 11.5319 13.5527 11.6324 13.426 11.7592L12.4447 12.7398C11.8708 13.3137 11.5052 14.063 11.4061 14.8685C11.307 15.674 11.4801 16.4895 11.8978 17.1854L12.3902 18.0061C14.9048 22.197 18.4542 25.6716 22.6978 28.0964L22.795 28.1523C24.2447 28.9805 26.0357 28.7392 27.1964 27.5792L28.2212 26.5543C28.348 26.4276 28.4485 26.2772 28.5171 26.1117C28.5857 25.9461 28.621 25.7687 28.621 25.5895C28.621 25.4103 28.5857 25.2329 28.5171 25.0673C28.4485 24.9018 28.348 24.7514 28.2212 24.6247L26.0585 22.4619C25.8479 22.2509 25.574 22.1147 25.2787 22.0741C24.9834 22.0335 24.683 22.0908 24.4233 22.2371Z" fill="white"/>
</svg>
